<?xml version="1.0" encoding="UTF-8"?>
<svg xmlns="http://www.w3.org/2000/svg" viewBox="0 0 239.26 486.73">
  <defs>
    <style>
      .cls-1 {
        fill: #000;
        stroke-width: 0px;
      }

      .cls-2 {
        stroke-width: .75px;
      }

      .cls-2, .cls-3 {
        fill: none;
        stroke: #000;
        stroke-linecap: round;
        stroke-linejoin: round;
      }
    </style>
  </defs>
  <g id="Make2D::_::_" data-name="Make2D::???::??">
    <line class="cls-2" x1="163.41" y1="470.68" x2=".38" y2="470.68"/>
    <line class="cls-2" x1="163.41" y1="19.19" x2=".38" y2="19.19"/>
    <line class="cls-2" x1="89.73" y1="470.68" x2="89.73" y2="486.36"/>
    <line class="cls-2" x1="14.48" y1="33.3" x2="14.48" y2="456.57"/>
    <line class="cls-2" x1="149.3" y1="456.57" x2="149.3" y2="33.3"/>
    <path class="cls-2" d="M106.93,257.48c-.79,12.62-10.85,22.68-23.47,23.47"/>
    <path class="cls-2" d="M83.46,280.94v-20.6"/>
    <path class="cls-2" d="M99.69,290.83c13.13-6.69,21.4-20.18,21.4-34.92"/>
    <path class="cls-2" d="M64.1,220.99c-13.13,6.69-21.4,20.18-21.4,34.92"/>
    <path class="cls-2" d="M46.97,116.93c9.83,19.29,33.43,26.95,52.71,17.13"/>
    <path class="cls-2" d="M99.69,290.83c-19.29,9.83-42.89,2.16-52.71-17.13"/>
    <path class="cls-2" d="M64.1,220.99c12.15-6.19,26.64-5.62,38.27,1.5,11.63,7.12,18.71,19.78,18.71,33.42"/>
    <path class="cls-2" d="M46.97,116.93c-2.81-5.51-4.27-11.61-4.27-17.79"/>
    <line class="cls-2" x1="74.06" y1="470.68" x2="74.06" y2="486.36"/>
    <line class="cls-2" x1="14.48" y1="456.57" x2="149.3" y2="456.57"/>
    <line class="cls-2" x1=".38" y1="19.19" x2=".38" y2="470.68"/>
    <line class="cls-2" x1="163.41" y1="470.68" x2="163.41" y2="19.19"/>
    <line class="cls-2" x1="33.3" y1="193.2" x2="33.3" y2="174.39"/>
    <line class="cls-2" x1="116.38" y1="379.75" x2="122.65" y2="386.02"/>
    <line class="cls-2" x1="122.65" y1="367.21" x2="116.38" y2="373.48"/>
    <line class="cls-2" x1="103.84" y1="367.21" x2="110.11" y2="373.48"/>
    <line class="cls-2" x1="110.11" y1="379.75" x2="103.84" y2="386.02"/>
    <line class="cls-2" x1="53.68" y1="379.75" x2="59.95" y2="386.02"/>
    <line class="cls-2" x1="59.95" y1="367.21" x2="53.68" y2="373.48"/>
    <line class="cls-2" x1="41.13" y1="367.21" x2="47.41" y2="373.48"/>
    <line class="cls-2" x1="47.41" y1="379.75" x2="41.13" y2="386.02"/>
    <line class="cls-2" x1="103.84" y1="367.21" x2="122.65" y2="367.21"/>
    <line class="cls-2" x1="103.84" y1="386.02" x2="103.84" y2="367.21"/>
    <line class="cls-2" x1="122.65" y1="386.02" x2="103.84" y2="386.02"/>
    <line class="cls-2" x1="122.65" y1="367.21" x2="122.65" y2="386.02"/>
    <line class="cls-2" x1="110.11" y1="379.75" x2="116.38" y2="379.75"/>
    <line class="cls-2" x1="116.38" y1="379.75" x2="116.38" y2="373.48"/>
    <line class="cls-2" x1="116.38" y1="373.48" x2="110.11" y2="373.48"/>
    <line class="cls-2" x1="110.11" y1="373.48" x2="110.11" y2="379.75"/>
    <line class="cls-2" x1="41.13" y1="367.21" x2="59.95" y2="367.21"/>
    <line class="cls-2" x1="41.13" y1="386.02" x2="41.13" y2="367.21"/>
    <line class="cls-2" x1="59.95" y1="386.02" x2="41.13" y2="386.02"/>
    <line class="cls-2" x1="59.95" y1="367.21" x2="59.95" y2="386.02"/>
    <line class="cls-2" x1="47.41" y1="379.75" x2="53.68" y2="379.75"/>
    <line class="cls-2" x1="53.68" y1="379.75" x2="53.68" y2="373.48"/>
    <line class="cls-2" x1="53.68" y1="373.48" x2="47.41" y2="373.48"/>
    <line class="cls-2" x1="47.41" y1="373.48" x2="47.41" y2="379.75"/>
    <path class="cls-2" d="M14.48,182.23c4.27-1.86,7.73-4.36,10.83-7.84"/>
    <line class="cls-2" x1="20.76" y1="174.39" x2="14.48" y2="180.66"/>
    <line class="cls-2" x1="20.76" y1="42.7" x2="14.48" y2="36.43"/>
    <line class="cls-2" x1="143.03" y1="42.7" x2="149.3" y2="36.43"/>
    <line class="cls-2" x1="143.03" y1="288.83" x2="149.3" y2="291.43"/>
    <line class="cls-2" x1="106.98" y1="324.89" x2="110.22" y2="332.72"/>
    <line class="cls-2" x1="56.81" y1="324.89" x2="53.56" y2="332.72"/>
    <line class="cls-2" x1="20.76" y1="288.83" x2="14.48" y2="291.43"/>
    <path class="cls-2" d="M25.32,193.2c-3.11-3.47-6.56-5.97-10.83-7.84"/>
    <line class="cls-2" x1="20.76" y1="193.2" x2="14.48" y2="186.93"/>
    <line class="cls-2" x1="149.3" y1="451.87" x2="14.48" y2="451.87"/>
    <line class="cls-2" x1="14.48" y1="34.86" x2="149.3" y2="34.86"/>
    <line class="cls-2" x1="14.48" y1="428.35" x2="149.3" y2="428.35"/>
    <path class="cls-2" d="M33.3,193.2c-.04-.06-.2,0-.25,0h-7.73"/>
    <line class="cls-2" x1="25.32" y1="193.2" x2="20.76" y2="193.2"/>
    <line class="cls-2" x1="20.76" y1="174.39" x2="25.32" y2="174.39"/>
    <path class="cls-2" d="M25.32,174.39h7.73c.08,0,.16.02.25,0"/>
    <line class="cls-2" x1="20.76" y1="288.83" x2="56.81" y2="324.89"/>
    <line class="cls-2" x1="56.81" y1="324.89" x2="106.98" y2="324.89"/>
    <line class="cls-2" x1="106.98" y1="324.89" x2="143.03" y2="288.83"/>
    <line class="cls-2" x1="143.03" y1="288.83" x2="143.03" y2="42.7"/>
    <line class="cls-2" x1="143.03" y1="42.7" x2="20.76" y2="42.7"/>
    <line class="cls-2" x1="74.06" y1=".38" x2="74.06" y2="19.19"/>
    <line class="cls-2" x1="89.73" y1=".38" x2="89.73" y2="19.19"/>
    <line class="cls-2" x1="149.3" y1="33.3" x2="14.48" y2="33.3"/>
    <line class="cls-2" x1="89.73" y1="486.36" x2="74.06" y2="486.36"/>
    <line class="cls-2" x1="89.73" y1=".38" x2="74.06" y2=".38"/>
    <path class="cls-2" d="M42.7,255.91c0,6.19,1.46,12.28,4.27,17.79"/>
    <line class="cls-2" x1="20.76" y1="193.2" x2="20.76" y2="288.83"/>
    <line class="cls-2" x1="20.76" y1="42.7" x2="20.76" y2="174.39"/>
    <line class="cls-2" x1="14.48" y1="444.03" x2="149.3" y2="444.03"/>
    <line class="cls-2" x1="110.22" y1="332.72" x2="53.56" y2="332.72"/>
    <line class="cls-2" x1="53.56" y1="332.72" x2="14.48" y2="293.64"/>
    <line class="cls-2" x1="149.3" y1="340.56" x2="14.48" y2="340.56"/>
    <line class="cls-2" x1="149.3" y1="293.64" x2="110.22" y2="332.72"/>
    <path class="cls-2" d="M56.86,254.34c.79-12.62,10.85-22.68,23.47-23.47"/>
    <path class="cls-2" d="M83.46,230.87c12.62.79,22.68,10.85,23.47,23.47"/>
    <path class="cls-2" d="M80.33,280.94c-12.62-.79-22.68-10.85-23.47-23.47"/>
    <line class="cls-2" x1="80.33" y1="257.48" x2="77.46" y2="257.48"/>
    <path class="cls-2" d="M56.86,257.48h20.6"/>
    <path class="cls-2" d="M80.33,260.34v20.6"/>
    <line class="cls-2" x1="80.33" y1="260.34" x2="80.33" y2="257.48"/>
    <line class="cls-2" x1="80.33" y1="254.34" x2="80.33" y2="251.47"/>
    <path class="cls-2" d="M80.33,230.87v20.6"/>
    <path class="cls-2" d="M77.46,254.34h-20.6"/>
    <line class="cls-2" x1="77.46" y1="254.34" x2="80.33" y2="254.34"/>
    <line class="cls-2" x1="83.46" y1="254.34" x2="86.33" y2="254.34"/>
    <path class="cls-2" d="M106.93,254.34h-20.6"/>
    <path class="cls-2" d="M83.46,251.47v-20.6"/>
    <line class="cls-2" x1="83.46" y1="251.47" x2="83.46" y2="254.34"/>
    <line class="cls-2" x1="83.46" y1="257.48" x2="83.46" y2="260.34"/>
    <path class="cls-2" d="M86.33,257.48h20.6"/>
    <line class="cls-2" x1="86.33" y1="257.48" x2="83.46" y2="257.48"/>
    <path class="cls-2" d="M56.86,97.57c.79-12.62,10.85-22.68,23.47-23.47"/>
    <path class="cls-2" d="M83.46,74.11c12.62.79,22.68,10.85,23.47,23.47"/>
    <path class="cls-2" d="M106.93,100.71c-.79,12.62-10.85,22.68-23.47,23.47"/>
    <path class="cls-2" d="M80.33,124.17c-12.62-.79-22.68-10.85-23.47-23.47"/>
    <path class="cls-2" d="M121.09,99.14c0,14.74-8.27,28.23-21.4,34.92"/>
    <line class="cls-2" x1="80.33" y1="100.71" x2="77.46" y2="100.71"/>
    <path class="cls-2" d="M56.86,100.71h20.6"/>
    <path class="cls-2" d="M80.33,103.57v20.6"/>
    <line class="cls-2" x1="80.33" y1="103.57" x2="80.33" y2="100.71"/>
    <line class="cls-2" x1="80.33" y1="97.57" x2="80.33" y2="94.71"/>
    <path class="cls-2" d="M80.33,74.11v20.6"/>
    <path class="cls-2" d="M77.46,97.57h-20.6"/>
    <line class="cls-2" x1="77.46" y1="97.57" x2="80.33" y2="97.57"/>
    <line class="cls-2" x1="83.46" y1="97.57" x2="86.33" y2="97.57"/>
    <path class="cls-2" d="M106.93,97.57h-20.6"/>
    <path class="cls-2" d="M83.46,94.71v-20.6"/>
    <line class="cls-2" x1="83.46" y1="94.71" x2="83.46" y2="97.57"/>
    <line class="cls-2" x1="83.46" y1="100.71" x2="83.46" y2="103.57"/>
    <path class="cls-2" d="M83.46,124.17v-20.6"/>
    <path class="cls-2" d="M86.33,100.71h20.6"/>
    <line class="cls-2" x1="86.33" y1="100.71" x2="83.46" y2="100.71"/>
    <path class="cls-2" d="M42.7,99.14c0-21.65,17.55-39.19,39.19-39.19s39.19,17.55,39.19,39.19"/>
  </g>
  <g id="_图层_2" data-name="图层 2">
    <line class="cls-3" x1="113.86" y1="99.14" x2="208.35" y2="99.14"/>
    <path class="cls-1" d="M233.56,107.55h-4.8v-18.1c-1.75,1.64-3.82,2.85-6.2,3.64v-4.36c1.25-.41,2.62-1.19,4.08-2.33,1.47-1.15,2.48-2.48,3.03-4.01h3.9v25.16Z"/>
    <line class="cls-3" x1="113.86" y1="255.91" x2="208.35" y2="255.91"/>
    <path class="cls-1" d="M237.5,259.34v4.46h-16.83c.18-1.69.73-3.28,1.64-4.79.91-1.51,2.71-3.51,5.4-6.01,2.16-2.02,3.49-3.38,3.98-4.1.66-.99.99-1.97.99-2.94,0-1.07-.29-1.89-.86-2.47-.57-.58-1.37-.86-2.38-.86s-1.8.3-2.39.91c-.59.6-.94,1.61-1.03,3.01l-4.79-.48c.28-2.64,1.18-4.54,2.68-5.69,1.5-1.15,3.38-1.73,5.64-1.73,2.47,0,4.41.67,5.83,2,1.41,1.33,2.12,2.99,2.12,4.97,0,1.13-.2,2.2-.61,3.22s-1.04,2.09-1.92,3.2c-.58.74-1.63,1.81-3.14,3.2-1.52,1.39-2.48,2.31-2.88,2.77-.4.46-.73.9-.98,1.33h9.54Z"/>
    <path class="cls-1" d="M221.11,357.33l4.65-.56c.15,1.19.55,2.09,1.2,2.72.65.63,1.44.94,2.36.94.99,0,1.83-.38,2.5-1.13s1.02-1.77,1.02-3.04c0-1.21-.32-2.17-.97-2.87-.65-.71-1.44-1.06-2.38-1.06-.62,0-1.35.12-2.21.36l.53-3.91c1.3.04,2.29-.25,2.97-.85s1.03-1.39,1.03-2.38c0-.84-.25-1.51-.75-2.02-.5-.5-1.17-.75-2-.75s-1.52.29-2.1.85-.93,1.4-1.06,2.5l-4.43-.75c.31-1.52.77-2.73,1.39-3.63.62-.91,1.49-1.62,2.6-2.14,1.11-.52,2.36-.78,3.73-.78,2.36,0,4.25.75,5.67,2.26,1.17,1.23,1.76,2.62,1.76,4.17,0,2.2-1.2,3.95-3.61,5.26,1.44.31,2.58,1,3.44,2.07.86,1.07,1.29,2.36,1.29,3.88,0,2.2-.8,4.07-2.41,5.62-1.61,1.55-3.61,2.32-6,2.32-2.27,0-4.15-.65-5.64-1.96-1.49-1.3-2.36-3.01-2.6-5.12Z"/>
    <polyline class="cls-3" points="50.54 370.35 50.54 353.6 208.35 353.6"/>
    <polyline class="cls-3" points="113.25 386.02 113.25 402.77 208.35 402.77"/>
    <path class="cls-1" d="M230.69,411.77v-5.04h-10.25v-4.2l10.87-15.91h4.03v15.89h3.11v4.22h-3.11v5.04h-4.65ZM230.69,402.51v-8.56l-5.76,8.56h5.76Z"/>
  </g>
</svg>