<?xml version="1.0" encoding="UTF-8"?>
<svg xmlns="http://www.w3.org/2000/svg" viewBox="0 0 267.72 276.35">
  <defs>
    <style>
      .cls-1 {
        fill: none;
        stroke: #000;
        stroke-linecap: round;
        stroke-linejoin: round;
        stroke-width: .75px;
      }

      .cls-2 {
        fill: red;
      }

      .cls-2, .cls-3 {
        stroke-width: 0px;
      }

      .cls-3 {
        fill: #bfbfbf;
      }
    </style>
  </defs>
  <g id="_图层_2" data-name="图层 2">
    <polygon class="cls-3" points="52.64 119.73 46.34 121.47 46.22 124.23 50.92 125.29 46.39 127.47 46.21 130.97 49.47 132.25 46.18 134.02 46.18 137.17 49.41 138.84 46.28 140.24 46.29 143.73 50.04 145.58 46.29 146.69 46.19 149.82 49.66 151.75 46.42 152.75 46.15 154.66 46.16 156.33 49.44 157.98 49.41 158.28 46.37 159.32 46.17 162.36 46.57 163.48 50.45 164.2 46.43 165.72 46.17 166.53 46.11 168.47 53.91 169.68 53.78 170.97 56.8 171.13 59.7 170.25 67.57 170.97 74.52 168.77 74.74 121.47 61.01 120.36 60.72 117.76 57.9 117.54 54.17 118.48 53.72 119.73 52.64 119.73"/>
  </g>
  <g id="Make2D::_::_" data-name="Make2D::???::??">
    <line class="cls-1" x1="214.02" y1="1.72" x2="213.94" y2="6.05"/>
    <line class="cls-1" x1="179.22" y1=".43" x2="177.28" y2="5.25"/>
    <path class="cls-1" d="M144.89,271.49c.79-.37,1.42-.98,1.85-1.74.43-.75.64-1.61.65-2.47"/>
    <line class="cls-1" x1="154.66" y1="262.34" x2="146.47" y2="266.19"/>
    <path class="cls-1" d="M6.57,30.5c.99-.14,1.73-.98,2.15-1.78.45-.85.66-1.84.68-2.79"/>
    <line class="cls-1" x1="23.98" y1="19.2" x2="102.27" y2="8.79"/>
    <line class="cls-1" x1="214.33" y1="238.45" x2="145.37" y2="271.27"/>
    <path class="cls-1" d="M234.65,231.32c-.03,1.59-.85,3.11-2.33,3.82"/>
    <line class="cls-1" x1="53.9" y1="119.83" x2="52.64" y2="119.73"/>
    <line class="cls-1" x1="50.74" y1="132.36" x2="52.01" y2="132.03"/>
    <path class="cls-1" d="M50.19,132.51c.25-.07.51-.06.76.02"/>
    <line class="cls-1" x1="50.69" y1="145.03" x2="51.76" y2="144.73"/>
    <line class="cls-1" x1="50.71" y1="138.7" x2="51.84" y2="138.39"/>
    <path class="cls-1" d="M50.16,138.85c.25-.07.52-.06.77.02"/>
    <line class="cls-1" x1="48.68" y1="139.26" x2="50.16" y2="138.85"/>
    <line class="cls-1" x1="46.65" y1="121.33" x2="52.9" y2="119.75"/>
    <line class="cls-1" x1="67.43" y1="170.99" x2="47.15" y2="169.03"/>
    <path class="cls-1" d="M54.22,133.22s.09.03.13.05"/>
    <path class="cls-1" d="M54.15,158.54s.09.03.13.05"/>
    <path class="cls-1" d="M54.15,158.58s.09,0,.14.02"/>
    <path class="cls-1" d="M54.17,152.22s.09.03.13.05"/>
    <path class="cls-1" d="M54.16,152.26s.09,0,.14.02"/>
    <line class="cls-1" x1="51.54" y1="151.07" x2="46.82" y2="152.43"/>
    <path class="cls-1" d="M55.03,151.76c0-.17-.12-.36-.31-.38"/>
    <path class="cls-1" d="M54.19,145.9s.09.03.13.05"/>
    <line class="cls-1" x1="46.83" y1="146.1" x2="46.37" y2="146.58"/>
    <path class="cls-1" d="M54.18,145.93s.09,0,.14.02"/>
    <line class="cls-1" x1="54.74" y1="145.03" x2="47.32" y2="144.32"/>
    <line class="cls-1" x1="50.54" y1="138.76" x2="50.67" y2="138.72"/>
    <line class="cls-1" x1="49.41" y1="157.61" x2="51.16" y2="157.38"/>
    <line class="cls-1" x1="49.42" y1="151.28" x2="51.2" y2="151.04"/>
    <line class="cls-1" x1="48.42" y1="144.68" x2="48.16" y2="144.4"/>
    <line class="cls-1" x1="48.51" y1="139.31" x2="48.63" y2="139.27"/>
    <line class="cls-1" x1="46.85" y1="139.76" x2="46.39" y2="140.24"/>
    <line class="cls-1" x1="51.57" y1="138.47" x2="46.85" y2="139.76"/>
    <line class="cls-1" x1="50.82" y1="164.6" x2="51.16" y2="164.56"/>
    <line class="cls-1" x1="51.65" y1="125.26" x2="51.32" y2="125.29"/>
    <path class="cls-1" d="M58.6,125.88c.19.02.31.2.31.38"/>
    <line class="cls-1" x1="47.36" y1="124.88" x2="58.6" y2="125.88"/>
    <path class="cls-1" d="M54.22,133.25s.09,0,.14.01"/>
    <line class="cls-1" x1="46.86" y1="133.42" x2="46.4" y2="133.9"/>
    <path class="cls-1" d="M213.97,1.57s0,0,0,0"/>
    <line class="cls-1" x1="179.27" y1=".38" x2="213.96" y2="1.57"/>
    <path class="cls-1" d="M101.82,8.72c-.05.06-.09.13-.13.2"/>
    <line class="cls-1" x1="211.09" y1="6.48" x2="175.58" y2="5.19"/>
    <line class="cls-1" x1="214.3" y1="6" x2="211.09" y2="6.48"/>
    <path class="cls-1" d="M104.16,7.11c.21-.03.42-.04.63-.03"/>
    <path class="cls-1" d="M154.66,262.34c.8-.38,1.44-.99,1.88-1.75.44-.76.65-1.63.67-2.5"/>
    <line class="cls-1" x1="223.5" y1="229.98" x2="155.03" y2="262.16"/>
    <path class="cls-1" d="M145.27,271.31c.79-.37,1.42-.98,1.85-1.74.43-.75.64-1.61.65-2.47"/>
    <path class="cls-1" d="M85.97,210.09c3-1.11,5.44-3.24,7.1-5.94,1.65-2.7,2.45-5.85,2.47-8.99"/>
    <line class="cls-1" x1="78.77" y1="21.59" x2="24.23" y2="19.23"/>
    <line class="cls-1" x1="145.31" y1="24.47" x2="88.2" y2="22"/>
    <path class="cls-1" d="M24.23,19.23c-.23,0-.46,0-.68.03"/>
    <line class="cls-1" x1="79.18" y1="21.53" x2="24.66" y2="19.17"/>
    <line class="cls-1" x1="102.91" y1="8.76" x2="94.45" y2="8.43"/>
    <path class="cls-1" d="M101.27,9.06c.32-.14.65-.23,1-.27"/>
    <line class="cls-1" x1="78.77" y1="21.59" x2="78.77" y2="22.47"/>
    <path class="cls-1" d="M76.41,27.32c.22-.82.53-1.68.97-2.41.4-.66,1.07-1.48,1.94-1.61"/>
    <line class="cls-1" x1="88.61" y1="21.94" x2="100.48" y2="20.2"/>
    <line class="cls-1" x1="60.72" y1="117.76" x2="57.64" y2="117.52"/>
    <line class="cls-1" x1="74.52" y1="168.88" x2="74.74" y2="121.47"/>
    <path class="cls-1" d="M12.75,96.72c0-6.26,1.98-12.62,6.16-17.45,4.22-4.87,10.22-7.62,16.74-7.21"/>
    <path class="cls-1" d="M39.93,79.97c-1.19-.08-2.34,0-3.51.24"/>
    <path class="cls-1" d="M35.49,216.46c-3.28-.37-6.4-1.52-9.19-3.23-2.8-1.72-5.24-3.98-7.23-6.57-3.99-5.19-6.21-11.73-6.21-18.28"/>
    <path class="cls-1" d="M50.63,157.67c.26-.08.54-.07.8.01"/>
    <line class="cls-1" x1="50.65" y1="157.67" x2="51.51" y2="157.41"/>
    <path class="cls-1" d="M50.08,157.83c.26-.08.54-.07.8.01"/>
    <path class="cls-1" d="M50.66,151.36c.26-.07.53-.07.79.01"/>
    <line class="cls-1" x1="50.66" y1="151.36" x2="51.61" y2="151.08"/>
    <path class="cls-1" d="M50.11,151.51c.26-.07.53-.07.79.01"/>
    <line class="cls-1" x1="48.63" y1="151.94" x2="50.11" y2="151.51"/>
    <path class="cls-1" d="M51.59,151.05c-.09.1-.17.19-.26.29"/>
    <path class="cls-1" d="M50.14,145.19c.26-.07.53-.06.78.02"/>
    <line class="cls-1" x1="48.66" y1="145.6" x2="50.14" y2="145.19"/>
    <path class="cls-1" d="M46.69,146.16s-.01.05.02.07c.03.02.05.03.08.04.06.02.11.03.17.04.12.02.23.03.35.04"/>
    <path class="cls-1" d="M50.71,138.7c.25-.07.52-.06.77.02"/>
    <path class="cls-1" d="M46.71,139.82s-.01.05.02.07c.03.02.05.03.08.03.06.02.11.03.17.04.12.02.23.03.35.04"/>
    <path class="cls-1" d="M51.62,138.45s-.03.03-.04.05"/>
    <line class="cls-1" x1="54.17" y1="118.48" x2="57.9" y2="117.54"/>
    <line class="cls-1" x1="53.89" y1="121.08" x2="53.9" y2="118.82"/>
    <line class="cls-1" x1="74.52" y1="168.77" x2="67.57" y2="170.97"/>
    <path class="cls-1" d="M56.25,164.69s-.03.03-.04.03"/>
    <path class="cls-1" d="M56.37,126.07s-.03.03-.04.03"/>
    <path class="cls-1" d="M46.72,133.48s0,.05.02.07c.03.01.05.02.08.03.06.02.11.03.17.04.12.02.23.03.35.04"/>
    <line class="cls-1" x1="52.28" y1="159.19" x2="53.76" y2="158.75"/>
    <line class="cls-1" x1="47.29" y1="159.02" x2="54.7" y2="159.65"/>
    <line class="cls-1" x1="55" y1="159.33" x2="55.01" y2="158.11"/>
    <path class="cls-1" d="M55.01,158.11c0-.17-.12-.36-.31-.38"/>
    <line class="cls-1" x1="54.7" y1="157.73" x2="47.29" y2="156.99"/>
    <line class="cls-1" x1="46.82" y1="150.38" x2="46.37" y2="149.82"/>
    <line class="cls-1" x1="51.54" y1="151.07" x2="51.36" y2="151.26"/>
    <line class="cls-1" x1="52.29" y1="152.86" x2="53.78" y2="152.43"/>
    <line class="cls-1" x1="47.3" y1="152.69" x2="54.71" y2="153.3"/>
    <line class="cls-1" x1="55.02" y1="152.98" x2="55.03" y2="151.76"/>
    <line class="cls-1" x1="54.72" y1="151.38" x2="47.31" y2="150.66"/>
    <line class="cls-1" x1="52.31" y1="146.52" x2="53.8" y2="146.09"/>
    <line class="cls-1" x1="51.56" y1="144.77" x2="46.83" y2="146.1"/>
    <line class="cls-1" x1="47.32" y1="146.35" x2="54.73" y2="146.95"/>
    <line class="cls-1" x1="55.04" y1="146.63" x2="55.04" y2="145.4"/>
    <line class="cls-1" x1="50.95" y1="132.53" x2="53.68" y2="133.37"/>
    <line class="cls-1" x1="50.89" y1="157.85" x2="53.61" y2="158.71"/>
    <line class="cls-1" x1="50.9" y1="151.53" x2="53.62" y2="152.38"/>
    <line class="cls-1" x1="50.92" y1="145.2" x2="53.64" y2="146.05"/>
    <line class="cls-1" x1="50.93" y1="138.87" x2="53.66" y2="139.71"/>
    <line class="cls-1" x1="55.08" y1="132.76" x2="53.07" y2="132.14"/>
    <line class="cls-1" x1="55.06" y1="139.09" x2="53.23" y2="138.52"/>
    <line class="cls-1" x1="51.5" y1="132.38" x2="54.22" y2="133.22"/>
    <path class="cls-1" d="M50.55,132.42s-.05.02-.08.04"/>
    <line class="cls-1" x1="51.43" y1="157.68" x2="54.15" y2="158.54"/>
    <line class="cls-1" x1="51.45" y1="151.37" x2="54.17" y2="152.22"/>
    <line class="cls-1" x1="51.47" y1="145.05" x2="54.19" y2="145.9"/>
    <line class="cls-1" x1="51.48" y1="138.72" x2="54.21" y2="139.56"/>
    <path class="cls-1" d="M48.52,132.96s-.05.02-.08.04"/>
    <path class="cls-1" d="M49.45,139.27c-.25-.08-.52-.09-.77-.02"/>
    <line class="cls-1" x1="52.33" y1="140.17" x2="53.82" y2="139.76"/>
    <path class="cls-1" d="M51.61,138.46s.01,0,.01-.01"/>
    <line class="cls-1" x1="47.33" y1="140.01" x2="54.75" y2="140.59"/>
    <line class="cls-1" x1="55.06" y1="140.27" x2="55.06" y2="139.04"/>
    <line class="cls-1" x1="54.76" y1="138.67" x2="47.33" y2="137.97"/>
    <path class="cls-1" d="M51.71,164.4c.31-.04.6-.01.9.07"/>
    <line class="cls-1" x1="53.8" y1="164.3" x2="55.52" y2="164.75"/>
    <path class="cls-1" d="M56,164.78c-.12.04-.36,0-.47-.03"/>
    <line class="cls-1" x1="51.22" y1="164.88" x2="54.51" y2="165.75"/>
    <line class="cls-1" x1="52.06" y1="164.63" x2="55.19" y2="165.45"/>
    <line class="cls-1" x1="51.14" y1="165.46" x2="54.51" y2="165.75"/>
    <line class="cls-1" x1="58.47" y1="166.69" x2="47.27" y2="165.72"/>
    <line class="cls-1" x1="47.28" y1="163.63" x2="58.47" y2="164.78"/>
    <path class="cls-1" d="M52.65,125.54c.31-.04.6-.02.91.05"/>
    <line class="cls-1" x1="52.3" y1="125.59" x2="52.65" y2="125.54"/>
    <path class="cls-1" d="M51.81,125.76c.31-.04.6-.02.91.05"/>
    <path class="cls-1" d="M51.26,125.9c.31-.04.6-.02.91.05"/>
    <line class="cls-1" x1="52.71" y1="125.81" x2="56.01" y2="126.64"/>
    <line class="cls-1" x1="56.89" y1="125.72" x2="58.24" y2="126.06"/>
    <line class="cls-1" x1="51.32" y1="126.18" x2="54.62" y2="127"/>
    <line class="cls-1" x1="52.17" y1="125.96" x2="55.3" y2="126.74"/>
    <line class="cls-1" x1="51.24" y1="126.76" x2="54.62" y2="127"/>
    <line class="cls-1" x1="58.59" y1="127.81" x2="47.36" y2="126.98"/>
    <line class="cls-1" x1="54.22" y1="152.24" x2="54.22" y2="152.26"/>
    <path class="cls-1" d="M51.51,138.31c-.02.12-.06.23-.11.35"/>
    <path class="cls-1" d="M51.45,151.01c-.02.09-.05.17-.09.26"/>
    <path class="cls-1" d="M51.53,131.96c-.02.14-.06.26-.12.39"/>
    <line class="cls-1" x1="55.08" y1="133.9" x2="55.08" y2="132.67"/>
    <path class="cls-1" d="M55.08,132.67c0-.17-.12-.36-.31-.37"/>
    <line class="cls-1" x1="54.77" y1="132.3" x2="47.35" y2="131.62"/>
    <line class="cls-1" x1="52.34" y1="133.81" x2="53.83" y2="133.41"/>
    <line class="cls-1" x1="47.34" y1="133.66" x2="54.77" y2="134.22"/>
    <path class="cls-1" d="M47.06,150.21c-.15-.01-.75-.08-.89-.21"/>
    <line class="cls-1" x1="58.22" y1="167.29" x2="47.02" y2="166.31"/>
    <line class="cls-1" x1="47.03" y1="163.19" x2="58.23" y2="164.33"/>
    <line class="cls-1" x1="47.04" y1="159.61" x2="54.45" y2="160.25"/>
    <line class="cls-1" x1="54.45" y1="157.29" x2="47.04" y2="156.55"/>
    <line class="cls-1" x1="47.05" y1="153.28" x2="54.46" y2="153.9"/>
    <line class="cls-1" x1="54.47" y1="150.94" x2="47.06" y2="150.21"/>
    <line class="cls-1" x1="47.06" y1="146.95" x2="54.48" y2="147.55"/>
    <line class="cls-1" x1="54.49" y1="144.58" x2="47.07" y2="143.87"/>
    <line class="cls-1" x1="47.08" y1="140.6" x2="54.5" y2="141.18"/>
    <line class="cls-1" x1="54.51" y1="138.21" x2="47.08" y2="137.52"/>
    <line class="cls-1" x1="47.09" y1="134.25" x2="54.52" y2="134.81"/>
    <line class="cls-1" x1="54.53" y1="131.84" x2="47.1" y2="131.17"/>
    <line class="cls-1" x1="58.34" y1="128.4" x2="47.1" y2="127.57"/>
    <line class="cls-1" x1="47.11" y1="124.42" x2="58.35" y2="125.42"/>
    <line class="cls-1" x1="74.26" y1="168.86" x2="74.52" y2="168.88"/>
    <path class="cls-1" d="M51.64,138.38s-.02.03-.02.04"/>
    <path class="cls-1" d="M51.69,132.01s-.04.06-.05.09"/>
    <line class="cls-1" x1="60.71" y1="120.36" x2="57.03" y2="121.31"/>
    <path class="cls-1" d="M220.06,232.75c-.81.38-1.26,1.21-1.27,2.07"/>
    <path class="cls-1" d="M224.84,15.81c-.59.1-1.11.42-1.47.88-.37.46-.56,1.04-.57,1.63"/>
    <path class="cls-1" d="M216.97,233.05c-.18.5-.27,1-.28,1.53"/>
    <line class="cls-1" x1="157.21" y1="258.09" x2="159.95" y2="41.45"/>
    <line class="cls-1" x1="145.7" y1="24.41" x2="88.61" y2="21.94"/>
    <line class="cls-1" x1="157.58" y1="257.92" x2="160.33" y2="41.38"/>
    <path class="cls-1" d="M223.61,235.37c.02-.88-.4-1.73-1.09-2.27-.69-.54-1.63-.73-2.46-.34"/>
    <line class="cls-1" x1="225.72" y1="235.6" x2="225.9" y2="226.08"/>
    <path class="cls-1" d="M227.72,18.52c.01-.75-.27-1.5-.82-2.03-.54-.53-1.3-.8-2.06-.68"/>
    <path class="cls-1" d="M229.88,18.6c.02-1.27-.41-2.53-1.23-3.5s-2-1.59-3.29-1.64"/>
    <path class="cls-1" d="M216.15,13.11c1.29.05,2.46.67,3.28,1.64s1.25,2.22,1.23,3.48"/>
    <path class="cls-1" d="M225.9,226.08c-.03,1.63-.87,3.19-2.4,3.91"/>
    <path class="cls-1" d="M232.69,234.96c1.44-.73,2.23-2.22,2.26-3.78"/>
    <path class="cls-1" d="M232.47,235.07c.05-.02.1-.05.15-.07"/>
    <line class="cls-1" x1="213.92" y1="1.63" x2="212.1" y2="6.33"/>
    <line class="cls-1" x1="105.14" y1="7.03" x2="234.77" y2="11.93"/>
    <line class="cls-1" x1="213.95" y1="5.61" x2="262.82" y2="7.37"/>
    <path class="cls-1" d="M179.22.43s.02-.05.04-.05"/>
    <path class="cls-1" d="M213.96,1.58s-.04.04-.04.05"/>
    <path class="cls-1" d="M179.26.38s0,0,0,0"/>
    <path class="cls-1" d="M214.02,1.72s0-.06,0-.08c0-.02-.02-.06-.05-.06"/>
    <path class="cls-1" d="M104.51,7.06c-.06,0-.12.02-.18.03"/>
    <line class="cls-1" x1="104.51" y1="7.06" x2="136.3" y2="2.89"/>
    <path class="cls-1" d="M136.3,2.89c.25-.03.5-.04.75-.04"/>
    <line class="cls-1" x1="137.05" y1="2.85" x2="177.66" y2="4.31"/>
    <line class="cls-1" x1="260.1" y1="221.71" x2="232.7" y2="234.96"/>
    <path class="cls-1" d="M262.82,7.37c1.23.04,2.39.56,3.24,1.45.85.89,1.31,2.08,1.28,3.3"/>
    <path class="cls-1" d="M262.68,217.71c-.04,1.72-1.04,3.26-2.58,4"/>
    <line class="cls-1" x1="267.34" y1="12.12" x2="262.68" y2="217.71"/>
    <line class="cls-1" x1="239.24" y1="17" x2="234.95" y2="231.18"/>
    <path class="cls-1" d="M105.14,7.03c-.21,0-.42,0-.62.03"/>
    <path class="cls-1" d="M239.24,17c.03-1.25-.4-2.5-1.22-3.45-.82-.96-1.98-1.57-3.26-1.62"/>
    <line class="cls-1" x1="175.58" y1="5.19" x2="177.41" y2="4.93"/>
    <line class="cls-1" x1="214.3" y1="6" x2="213.94" y2="5.98"/>
    <path class="cls-1" d="M222.35,237.43c.8-.39,1.24-1.2,1.26-2.07"/>
    <path class="cls-1" d="M223.37,239.47c1.5-.72,2.32-2.26,2.35-3.87"/>
    <path class="cls-1" d="M9.73,255.29c-.03-1.34-.47-2.69-1.2-3.8-.37-.56-.82-1.07-1.35-1.49-.51-.4-1.15-.74-1.81-.83"/>
    <path class="cls-1" d="M102.27,8.79c.21-.03.43-.04.64-.03"/>
    <path class="cls-1" d="M155.03,262.16c.8-.38,1.44-.99,1.88-1.75.44-.76.65-1.63.67-2.5"/>
    <path class="cls-1" d="M36.42,80.2c-3.62.74-6.65,2.92-8.71,5.92-2.06,2.99-3.04,6.61-3.04,10.19"/>
    <line class="cls-1" x1="229.69" y1="28.51" x2="229.88" y2="18.6"/>
    <line class="cls-1" x1="91.15" y1="19.8" x2="79.18" y2="21.53"/>
    <line class="cls-1" x1="78.77" y1="21.59" x2="69.83" y2="22.88"/>
    <line class="cls-1" x1="57.64" y1="117.52" x2="57.64" y2="117.61"/>
    <path class="cls-1" d="M76.28,74.59c3.41.21,6.7,1.24,9.66,2.9,2.97,1.66,5.56,3.93,7.67,6.59,4.24,5.32,6.51,12.11,6.46,18.89"/>
    <path class="cls-1" d="M99.41,197.44c-.02,3.16-.56,6.33-1.67,9.3-1.1,2.97-2.76,5.73-4.96,8.03-4.5,4.72-10.73,7-17.22,6.26"/>
    <path class="cls-1" d="M24.67,187.79c0,4.36,1.48,8.71,4.14,12.16,2.64,3.43,6.51,6,10.94,6.49"/>
    <path class="cls-1" d="M5.36,249.17c-2.59-.35-4.51-2.55-4.52-5.16"/>
    <path class="cls-1" d="M38.37,79.96c-3.12,1.14-5.64,3.38-7.33,6.19-1.69,2.81-2.5,6.08-2.5,9.33"/>
    <line class="cls-1" x1="213.29" y1="238.95" x2="221.11" y2="239.84"/>
    <line class="cls-1" x1="48.8" y1="20.21" x2="48.37" y2="20.27"/>
    <path class="cls-1" d="M154.84,262.24c.06-.03.13-.05.19-.08"/>
    <line class="cls-1" x1="147.04" y1="269.71" x2="146.67" y2="269.89"/>
    <path class="cls-1" d="M145.08,271.4c.06-.03.13-.06.19-.09"/>
    <line class="cls-1" x1="88.61" y1="22.01" x2="88.61" y2="21.94"/>
    <line class="cls-1" x1="91.14" y1="21.57" x2="91.15" y2="19.8"/>
    <line class="cls-1" x1="77.13" y1="25.36" x2="66.89" y2="26.89"/>
    <line class="cls-1" x1="19.9" y1="78.2" x2="19.96" y2="207.76"/>
    <path class="cls-1" d="M225.69,21.03c.58-.1,1.1-.42,1.46-.89s.55-1.04.57-1.62"/>
    <path class="cls-1" d="M93.82,8.46c-1.18.15-2.17.85-2.81,1.82"/>
    <line class="cls-1" x1="93.82" y1="8.46" x2="104.16" y2="7.11"/>
    <line class="cls-1" x1="232.32" y1="235.15" x2="223.44" y2="239.44"/>
    <line class="cls-1" x1="5.11" y1="30.57" x2="7.3" y2="30.26"/>
    <line class="cls-1" x1="144.89" y1="271.49" x2="136.64" y2="275.42"/>
    <line class="cls-1" x1="14.21" y1="20.5" x2="23.55" y2="19.26"/>
    <path class="cls-1" d="M9.41,25.93c.02-1.33.5-2.61,1.39-3.62.88-1,2.09-1.64,3.42-1.82"/>
    <path class="cls-1" d="M.38,36.09c0-2.78,1.97-5.12,4.73-5.52"/>
    <path class="cls-1" d="M146.47,266.19c-1,.47-2.1.63-3.18.5"/>
    <line class="cls-1" x1=".84" y1="244.01" x2=".38" y2="36.09"/>
    <path class="cls-1" d="M143.28,266.69c-.53-.06-1.08,0-1.57.22"/>
    <path class="cls-1" d="M136.63,275.42c-1.02.48-2.14.65-3.25.5"/>
    <line class="cls-1" x1="133.38" y1="275.93" x2="14.27" y2="260.37"/>
    <path class="cls-1" d="M14.27,260.37c-2.57-.34-4.48-2.49-4.54-5.08"/>
    <path class="cls-1" d="M23.98,19.2c-.07,0-.14.02-.21.03"/>
    <line class="cls-1" x1="36.42" y1="80.2" x2="40.26" y2="79.42"/>
    <line class="cls-1" x1="43.54" y1="205.12" x2="83.4" y2="209.49"/>
    <line class="cls-1" x1="28.54" y1="95.47" x2="28.51" y2="186.56"/>
    <path class="cls-1" d="M150.18,30.12c.02-1.37-.44-2.74-1.32-3.81-.88-1.06-2.14-1.78-3.55-1.84"/>
    <path class="cls-1" d="M155.06,35.78c-1.41-.07-2.67-.78-3.55-1.84-.88-1.07-1.34-2.44-1.33-3.82"/>
    <path class="cls-1" d="M159.95,41.45c.02-1.38-.45-2.75-1.33-3.82-.88-1.07-2.15-1.78-3.56-1.85"/>
    <path class="cls-1" d="M147.39,267.29c0-.58.1-1.13.29-1.68"/>
    <line class="cls-1" x1="79.18" y1="22.41" x2="78.77" y2="22.39"/>
    <path class="cls-1" d="M218.79,234.82c-.02.88.4,1.74,1.09,2.28.69.54,1.64.73,2.46.33"/>
    <path class="cls-1" d="M221.11,239.84c.77.09,1.55-.03,2.26-.37"/>
    <path class="cls-1" d="M94.45,8.43c-.21,0-.42,0-.63.03"/>
    <path class="cls-1" d="M222.8,18.32c-.01.76.28,1.51.82,2.04.55.53,1.31.8,2.07.67"/>
    <line class="cls-1" x1="225.35" y1="13.47" x2="216.15" y2="13.11"/>
    <path class="cls-1" d="M24.66,19.17c-.23-.01-.46,0-.68.03"/>
    <path class="cls-1" d="M150.57,30.05c.02-1.37-.44-2.74-1.32-3.81-.88-1.06-2.14-1.77-3.55-1.84"/>
    <path class="cls-1" d="M225.16,23.37c1.29.05,2.47.68,3.29,1.65.83.97,1.26,2.23,1.23,3.49"/>
    <path class="cls-1" d="M160.33,41.38c.02-1.38-.45-2.75-1.33-3.82-.88-1.07-2.15-1.78-3.56-1.85"/>
    <path class="cls-1" d="M155.44,35.71c-1.41-.07-2.67-.78-3.55-1.84-.88-1.07-1.34-2.44-1.33-3.81"/>
    <path class="cls-1" d="M220.65,18.23c-.02,1.26.41,2.52,1.23,3.49.82.97,2,1.59,3.28,1.65"/>
    <path class="cls-1" d="M216.69,234.58c-.03,1.61-.85,3.15-2.36,3.87"/>
    <path class="cls-1" d="M147.77,267.11c0-.58.1-1.13.29-1.68"/>
    <line class="cls-1" x1="238.93" y1="17.05" x2="234.65" y2="231.32"/>
    <path class="cls-1" d="M234.46,11.98c1.28.05,2.44.66,3.26,1.62.82.96,1.24,2.2,1.22,3.45"/>
    <line class="cls-1" x1="104.78" y1="7.08" x2="234.46" y2="11.98"/>
    <path class="cls-1" d="M69.83,22.88c-.88.13-1.55.94-1.96,1.6-.45.73-.76,1.59-.98,2.41"/>
    <line class="cls-1" x1="79.18" y1="21.53" x2="79.18" y2="22.41"/>
    <line class="cls-1" x1="78.77" y1="22.47" x2="79.18" y2="22.41"/>
    <line class="cls-1" x1="79.33" y1="23.3" x2="88.2" y2="22"/>
    <line class="cls-1" x1="100.48" y1="20.2" x2="91.15" y2="19.8"/>
    <line class="cls-1" x1="76.41" y1="27.32" x2="66.89" y2="26.89"/>
    <line class="cls-1" x1="52.64" y1="119.73" x2="52.64" y2="119.82"/>
    <line class="cls-1" x1="60.71" y1="120.36" x2="60.72" y2="117.76"/>
    <line class="cls-1" x1="74.74" y1="121.47" x2="60.71" y2="120.36"/>
    <path class="cls-1" d="M28.51,186.56c0,4.34,1.47,8.67,4.12,12.11,2.64,3.41,6.49,5.97,10.91,6.45"/>
    <path class="cls-1" d="M83.4,209.49c1.45.16,2.91.09,4.34-.21"/>
    <line class="cls-1" x1="95.53" y1="195.16" x2="96.16" y2="101.4"/>
    <line class="cls-1" x1="100.09" y1="102.97" x2="99.41" y2="197.44"/>
    <path class="cls-1" d="M96.16,101.4c.03-4.49-1.47-8.98-4.28-12.51-2.8-3.51-6.88-6-11.48-6.3"/>
    <path class="cls-1" d="M79.73,210.84c2.11.23,4.24,0,6.24-.75"/>
    <line class="cls-1" x1="80.4" y1="82.59" x2="39.93" y2="79.97"/>
    <line class="cls-1" x1="35.64" y1="72.06" x2="76.28" y2="74.59"/>
    <line class="cls-1" x1="75.57" y1="221.03" x2="35.49" y2="216.46"/>
    <line class="cls-1" x1="39.75" y1="206.43" x2="79.73" y2="210.84"/>
    <line class="cls-1" x1="24.67" y1="96.32" x2="24.67" y2="187.79"/>
    <line class="cls-1" x1="12.85" y1="188.38" x2="12.75" y2="96.72"/>
    <path class="cls-1" d="M50.74,132.36c.25-.07.51-.06.76.02"/>
    <line class="cls-1" x1="48.71" y1="132.9" x2="50.19" y2="132.51"/>
    <line class="cls-1" x1="48.61" y1="158.27" x2="50.08" y2="157.83"/>
    <path class="cls-1" d="M46.67,158.82s-.02.05.01.07c.02.02.05.03.08.04.06.02.11.03.17.04.12.02.24.04.35.05"/>
    <path class="cls-1" d="M46.68,152.49s-.02.05.01.07c.03.02.05.03.08.04.06.02.11.03.17.04.12.02.23.03.35.04"/>
    <path class="cls-1" d="M50.69,145.03c.26-.07.53-.06.78.02"/>
    <path class="cls-1" d="M46.71,137.83c-.17-.17-.34-.34-.52-.51"/>
    <path class="cls-1" d="M46.15,162.97c.14.14.73.2.88.22"/>
    <path class="cls-1" d="M58.57,166.68s-.07.01-.1.01"/>
    <path class="cls-1" d="M46.22,124.23c.13.12.75.18.89.19"/>
    <path class="cls-1" d="M46.74,124.74c-.17-.17-.35-.34-.52-.51"/>
    <path class="cls-1" d="M54.21,139.56s.09.03.13.05"/>
    <line class="cls-1" x1="55" y1="158.04" x2="53.71" y2="157.63"/>
    <line class="cls-1" x1="55.03" y1="151.73" x2="53.55" y2="151.27"/>
    <line class="cls-1" x1="55.04" y1="145.42" x2="53.39" y2="144.9"/>
    <path class="cls-1" d="M49.47,132.92c-.25-.08-.51-.09-.76-.02"/>
    <line class="cls-1" x1="49.47" y1="132.92" x2="52.34" y2="133.81"/>
    <path class="cls-1" d="M49.41,158.28c-.26-.08-.54-.09-.8-.01"/>
    <line class="cls-1" x1="49.41" y1="158.28" x2="52.28" y2="159.19"/>
    <line class="cls-1" x1="47.87" y1="158.82" x2="48.39" y2="158.36"/>
    <path class="cls-1" d="M49.42,151.95c-.26-.08-.53-.09-.79-.01"/>
    <line class="cls-1" x1="49.42" y1="151.95" x2="52.29" y2="152.86"/>
    <line class="cls-1" x1="47.89" y1="152.49" x2="48.4" y2="152.03"/>
    <path class="cls-1" d="M49.44,145.62c-.25-.08-.52-.09-.78-.02"/>
    <line class="cls-1" x1="49.44" y1="145.62" x2="52.31" y2="146.52"/>
    <line class="cls-1" x1="47.9" y1="146.16" x2="48.42" y2="145.7"/>
    <line class="cls-1" x1="49.45" y1="139.27" x2="52.33" y2="140.17"/>
    <line class="cls-1" x1="51.13" y1="138.93" x2="51.12" y2="138.95"/>
    <line class="cls-1" x1="51.57" y1="138.47" x2="51.39" y2="138.66"/>
    <path class="cls-1" d="M54.2,139.6s.09,0,.14.01"/>
    <line class="cls-1" x1="52.33" y1="140.17" x2="47.92" y2="139.82"/>
    <path class="cls-1" d="M51.57,138.47s.02,0,.03-.01"/>
    <line class="cls-1" x1="54.08" y1="121.13" x2="56.55" y2="121.32"/>
    <path class="cls-1" d="M51.16,164.56c.31-.04.6-.01.91.07"/>
    <line class="cls-1" x1="49.97" y1="164.86" x2="50.32" y2="164.82"/>
    <path class="cls-1" d="M50.32,164.82c.31-.04.6-.01.91.07"/>
    <line class="cls-1" x1="52.61" y1="164.46" x2="55.9" y2="165.33"/>
    <line class="cls-1" x1="54.14" y1="165.18" x2="55.9" y2="165.33"/>
    <path class="cls-1" d="M47.27,165.72c-.12-.01-.24-.02-.36-.05-.06-.01-.12-.02-.17-.05-.03-.01-.06-.02-.08-.04-.03-.02-.04-.05,0-.08"/>
    <line class="cls-1" x1="51.46" y1="125.81" x2="51.81" y2="125.76"/>
    <line class="cls-1" x1="49.97" y1="126.21" x2="49.41" y2="126.62"/>
    <path class="cls-1" d="M50.41,126.12c.31-.04.6-.02.91.05"/>
    <line class="cls-1" x1="53.56" y1="125.6" x2="55.64" y2="126.12"/>
    <line class="cls-1" x1="54.24" y1="125.49" x2="56.18" y2="125.97"/>
    <path class="cls-1" d="M47.36,126.98c-.12,0-.23-.02-.35-.04-.06,0-.11-.02-.17-.04-.03,0-.06-.02-.08-.03-.03-.01-.05-.04-.03-.07"/>
    <line class="cls-1" x1="51.17" y1="132.6" x2="51.13" y2="132.64"/>
    <line class="cls-1" x1="52.34" y1="133.81" x2="47.93" y2="133.48"/>
    <line class="cls-1" x1="53.37" y1="132.23" x2="54.92" y2="132.35"/>
    <path class="cls-1" d="M47.04,156.55c-.15-.01-.75-.08-.88-.21"/>
    <path class="cls-1" d="M47.07,143.87c-.15-.01-.76-.07-.89-.2"/>
    <path class="cls-1" d="M47.1,131.17c-.14-.01-.76-.07-.89-.2"/>
    <path class="cls-1" d="M47.08,137.52c-.14-.01-.76-.07-.89-.2"/>
    <path class="cls-1" d="M58.99,166.5c0,.21-.07.42-.21.57-.14.16-.35.24-.56.22"/>
    <path class="cls-1" d="M58.23,164.33c.23.02.42.15.56.33.14.17.21.4.21.62"/>
    <path class="cls-1" d="M54.45,160.25c.21.02.42-.06.56-.22.14-.16.21-.37.21-.57"/>
    <line class="cls-1" x1="55.22" y1="159.45" x2="55.22" y2="158.23"/>
    <path class="cls-1" d="M55.22,158.23c0-.22-.07-.44-.21-.62-.13-.17-.33-.3-.56-.32"/>
    <path class="cls-1" d="M54.46,153.9c.22.02.42-.07.56-.23.14-.16.21-.37.21-.58"/>
    <line class="cls-1" x1="55.23" y1="153.1" x2="55.24" y2="151.88"/>
    <path class="cls-1" d="M55.24,151.88c0-.22-.07-.44-.21-.62-.13-.17-.33-.3-.56-.32"/>
    <path class="cls-1" d="M54.48,147.55c.22.02.42-.07.56-.23.14-.16.21-.37.21-.58"/>
    <line class="cls-1" x1="55.25" y1="146.74" x2="55.26" y2="145.52"/>
    <path class="cls-1" d="M55.26,145.52c0-.22-.07-.44-.21-.62-.14-.17-.33-.3-.56-.32"/>
    <path class="cls-1" d="M54.5,141.18c.22.02.42-.07.56-.23.14-.16.21-.37.21-.58"/>
    <line class="cls-1" x1="55.27" y1="140.38" x2="55.27" y2="139.15"/>
    <path class="cls-1" d="M55.27,139.15c0-.22-.07-.44-.21-.62-.14-.17-.33-.3-.56-.32"/>
    <path class="cls-1" d="M54.52,134.81c.22.02.42-.07.56-.23.14-.16.21-.37.21-.58"/>
    <line class="cls-1" x1="55.29" y1="134.01" x2="55.29" y2="132.78"/>
    <path class="cls-1" d="M55.29,132.78c0-.22-.07-.44-.21-.62-.14-.17-.33-.3-.56-.32"/>
    <path class="cls-1" d="M59.12,127.59c0,.21-.07.42-.21.58-.14.16-.35.25-.56.23"/>
    <path class="cls-1" d="M58.35,125.42c.23.02.42.15.56.32.14.18.21.4.21.62"/>
    <line class="cls-1" x1="59.81" y1="170.25" x2="56.67" y2="171.23"/>
    <line class="cls-1" x1="51.46" y1="125.81" x2="52.28" y2="125.59"/>
    <line class="cls-1" x1="50.07" y1="126.17" x2="50.89" y2="125.95"/>
    <path class="cls-1" d="M51.64,132.12s0-.01,0-.02"/>
    <line class="cls-1" x1="51.39" y1="157.4" x2="46.81" y2="158.75"/>
    <line class="cls-1" x1="51.29" y1="151.33" x2="51.08" y2="151.55"/>
    <path class="cls-1" d="M51.6,150.99s-.01.02-.02.03"/>
    <line class="cls-1" x1="50.39" y1="157.78" x2="50.41" y2="157.76"/>
    <line class="cls-1" x1="50.41" y1="151.46" x2="50.43" y2="151.45"/>
    <line class="cls-1" x1="50.43" y1="145.14" x2="50.45" y2="145.13"/>
    <line class="cls-1" x1="50.46" y1="138.81" x2="50.46" y2="138.8"/>
    <line class="cls-1" x1="51.15" y1="138.94" x2="51.15" y2="138.94"/>
    <line class="cls-1" x1="53.29" y1="138.54" x2="54.06" y2="138.6"/>
    <path class="cls-1" d="M50.96,164.01s-.09,0-.13,0"/>
    <line class="cls-1" x1="53.95" y1="164.34" x2="53.96" y2="164.32"/>
    <line class="cls-1" x1="55.52" y1="164.76" x2="55.52" y2="164.75"/>
    <line class="cls-1" x1="55.72" y1="164.5" x2="56.07" y2="164.59"/>
    <line class="cls-1" x1="55.53" y1="164.76" x2="55.96" y2="164.79"/>
    <line class="cls-1" x1="57.21" y1="125.8" x2="58.72" y2="125.91"/>
    <line class="cls-1" x1="54.44" y1="126.53" x2="56.01" y2="126.64"/>
    <line class="cls-1" x1="54.27" y1="133.24" x2="54.27" y2="133.26"/>
    <line class="cls-1" x1="54.26" y1="138.62" x2="54.26" y2="138.62"/>
    <line class="cls-1" x1="54.24" y1="145.91" x2="54.24" y2="145.94"/>
    <line class="cls-1" x1="54.2" y1="158.56" x2="54.2" y2="158.58"/>
    <line class="cls-1" x1="54.3" y1="126.21" x2="54.29" y2="126.21"/>
    <path class="cls-1" d="M51.47,144.72s-.02.06-.03.09"/>
    <path class="cls-1" d="M51.43,144.82h0"/>
    <line class="cls-1" x1="50.5" y1="132.45" x2="50.42" y2="132.47"/>
    <line class="cls-1" x1="48.47" y1="132.99" x2="46.86" y2="133.42"/>
    <path class="cls-1" d="M48.71,132.9s-.04.01-.06.02"/>
    <path class="cls-1" d="M48.61,158.27s0,0-.01,0"/>
    <path class="cls-1" d="M46.16,156.33s-.02-.03-.02-.05"/>
    <path class="cls-1" d="M46.67,156.84c-.17-.17-.34-.34-.52-.51"/>
    <path class="cls-1" d="M46.15,159.32s-.02.03-.02.05"/>
    <path class="cls-1" d="M46.15,159.32c.17-.17.34-.34.52-.5"/>
    <path class="cls-1" d="M54.8,159.64c.14-.04.21-.18.21-.31"/>
    <path class="cls-1" d="M48.63,151.94s-.02,0-.03,0"/>
    <path class="cls-1" d="M46.17,150s-.02-.03-.02-.05"/>
    <path class="cls-1" d="M46.69,150.51c-.17-.17-.34-.34-.52-.51"/>
    <path class="cls-1" d="M46.16,153s-.02.02-.02.04"/>
    <path class="cls-1" d="M46.16,153l.52-.51"/>
    <path class="cls-1" d="M54.81,153.29c.14-.04.21-.18.21-.31"/>
    <path class="cls-1" d="M48.66,145.6s-.03,0-.04.01"/>
    <path class="cls-1" d="M46.18,143.67s-.02-.02-.02-.04"/>
    <path class="cls-1" d="M46.7,144.18c-.17-.17-.34-.34-.52-.51"/>
    <path class="cls-1" d="M46.17,146.67s-.02.02-.02.04"/>
    <path class="cls-1" d="M46.17,146.67c.17-.17.35-.34.52-.51"/>
    <path class="cls-1" d="M54.83,146.94c.14-.04.21-.18.21-.31"/>
    <path class="cls-1" d="M48.68,139.26s-.03,0-.05.01"/>
    <path class="cls-1" d="M46.19,137.32s-.02-.02-.02-.04"/>
    <path class="cls-1" d="M46.19,140.33s-.02.02-.02.04"/>
    <path class="cls-1" d="M46.19,140.33c.17-.17.35-.34.52-.51"/>
    <path class="cls-1" d="M51.62,138.45s0-.02,0-.03"/>
    <path class="cls-1" d="M54.84,140.58c.14-.04.22-.18.22-.31"/>
    <path class="cls-1" d="M53.9,118.82c0-.16.11-.3.27-.34"/>
    <path class="cls-1" d="M67.57,170.97s-.09.02-.14.01"/>
    <path class="cls-1" d="M56.67,171.23s-.09.02-.14.01"/>
    <line class="cls-1" x1="56.53" y1="171.25" x2="54.07" y2="171.01"/>
    <path class="cls-1" d="M54.07,171.01c-.18-.02-.32-.17-.32-.35"/>
    <line class="cls-1" x1="53.76" y1="170.66" x2="53.76" y2="169.67"/>
    <path class="cls-1" d="M47.15,169.03c-.22-.02-.43-.05-.64-.11-.2-.07-.41-.2-.41-.45"/>
    <path class="cls-1" d="M52.17,164.19s.02,0,.03,0"/>
    <path class="cls-1" d="M51.33,164.45s-.04.02-.06.03"/>
    <line class="cls-1" x1="51.33" y1="164.45" x2="52.17" y2="164.19"/>
    <path class="cls-1" d="M56.25,164.69s0,0,0,0"/>
    <path class="cls-1" d="M50.78,164.61s.02,0,.03,0"/>
    <path class="cls-1" d="M49.94,164.87s-.04.02-.06.03"/>
    <line class="cls-1" x1="49.94" y1="164.87" x2="50.78" y2="164.61"/>
    <path class="cls-1" d="M46.66,163.48c.1.1.51.14.62.15"/>
    <path class="cls-1" d="M46.66,163.48c-.17-.17-.34-.34-.51-.51"/>
    <path class="cls-1" d="M46.66,165.51s.1-.05.14-.06"/>
    <path class="cls-1" d="M46.14,166.01c.17-.17.34-.34.52-.5"/>
    <path class="cls-1" d="M52.28,125.59s.02,0,.02,0"/>
    <path class="cls-1" d="M51.44,125.81s-.05.02-.07.03"/>
    <path class="cls-1" d="M52.83,125.45s-.05.02-.07.03"/>
    <path class="cls-1" d="M56.37,126.07h0"/>
    <path class="cls-1" d="M50.89,125.95s.02,0,.02,0"/>
    <path class="cls-1" d="M50.04,126.17s-.05.02-.07.03"/>
    <path class="cls-1" d="M46.74,124.74c.09.09.53.13.62.14"/>
    <path class="cls-1" d="M46.73,126.81s.1-.05.14-.06"/>
    <path class="cls-1" d="M46.21,127.32c.17-.17.35-.34.52-.51"/>
    <path class="cls-1" d="M58.68,127.8s-.06.01-.09,0"/>
    <path class="cls-1" d="M51.64,132.14s-.02.02-.02.03"/>
    <path class="cls-1" d="M46.21,130.97s-.02-.02-.02-.04"/>
    <path class="cls-1" d="M46.72,131.48c-.17-.17-.35-.34-.52-.51"/>
    <path class="cls-1" d="M54.86,134.21c.14-.04.22-.18.22-.32"/>
    <path class="cls-1" d="M46.2,133.99s-.02.02-.02.04"/>
    <path class="cls-1" d="M46.2,133.99l.52-.51"/>
    <path class="cls-1" d="M46.2,124.19s0,.03.02.04"/>
    <line class="cls-1" x1="46.2" y1="124.19" x2="46.2" y2="121.76"/>
    <path class="cls-1" d="M46.11,166.06s.01-.04.03-.05"/>
    <line class="cls-1" x1="46.11" y1="168.47" x2="46.11" y2="166.06"/>
    <path class="cls-1" d="M46.13,159.37s.05.07.08.08c.04.02.07.03.11.04.08.02.16.04.24.06.16.03.32.05.48.06"/>
    <path class="cls-1" d="M46.12,162.92s.01.04.03.05"/>
    <line class="cls-1" x1="46.12" y1="162.92" x2="46.13" y2="159.37"/>
    <path class="cls-1" d="M46.14,153.04s.05.07.08.08c.04.02.07.03.11.04.08.02.16.04.24.05.16.03.32.05.48.06"/>
    <line class="cls-1" x1="46.13" y1="156.29" x2="46.14" y2="153.04"/>
    <path class="cls-1" d="M46.15,146.71s.05.07.08.08c.04.02.07.03.11.04.08.02.16.04.24.05.16.03.32.05.48.06"/>
    <line class="cls-1" x1="46.15" y1="149.96" x2="46.15" y2="146.71"/>
    <path class="cls-1" d="M46.17,140.37s.06.07.08.08c.04.02.07.03.11.04.08.02.16.04.24.05.16.03.32.04.48.06"/>
    <line class="cls-1" x1="46.16" y1="143.62" x2="46.17" y2="140.37"/>
    <path class="cls-1" d="M46.19,127.35s0-.03.02-.04"/>
    <line class="cls-1" x1="46.19" y1="130.93" x2="46.19" y2="127.35"/>
    <path class="cls-1" d="M46.18,134.02s.06.07.08.08c.04.02.07.03.11.04.08.02.16.04.24.05.16.03.32.04.48.06"/>
    <line class="cls-1" x1="46.17" y1="137.28" x2="46.18" y2="134.02"/>
    <path class="cls-1" d="M46.2,121.76c0-.12.05-.22.14-.3.09-.08.19-.11.3-.14"/>
    <path class="cls-1" d="M53.83,133.41c-.05-.01-.11-.03-.16-.04"/>
    <path class="cls-1" d="M53.76,158.75c-.05-.01-.11-.03-.16-.04"/>
    <line class="cls-1" x1="54.29" y1="158.59" x2="55.01" y2="158.38"/>
    <path class="cls-1" d="M46.81,158.75s-.11.03-.14.06"/>
    <path class="cls-1" d="M54.7,159.65s.07,0,.1-.01"/>
    <path class="cls-1" d="M47.29,156.99c-.11-.01-.52-.06-.62-.15"/>
    <path class="cls-1" d="M53.78,152.43c-.05-.01-.11-.03-.16-.04"/>
    <line class="cls-1" x1="54.3" y1="152.27" x2="55.03" y2="152.06"/>
    <path class="cls-1" d="M51.54,151.07s.03,0,.05-.02"/>
    <path class="cls-1" d="M46.82,152.43s-.11.03-.14.06"/>
    <path class="cls-1" d="M54.71,153.3s.06,0,.1,0"/>
    <path class="cls-1" d="M47.31,150.66c-.11-.01-.53-.05-.62-.15"/>
    <path class="cls-1" d="M53.8,146.09c-.05-.01-.11-.03-.16-.04"/>
    <line class="cls-1" x1="54.32" y1="145.95" x2="55.04" y2="145.74"/>
    <path class="cls-1" d="M51.56,144.77s.06-.01.05-.04"/>
    <path class="cls-1" d="M46.83,146.1s-.11.03-.14.06"/>
    <path class="cls-1" d="M54.73,146.95s.06,0,.1,0"/>
    <path class="cls-1" d="M55.04,145.4c0-.17-.12-.36-.31-.38"/>
    <path class="cls-1" d="M47.32,144.32c-.1,0-.53-.05-.62-.14"/>
    <path class="cls-1" d="M53.82,139.76c-.05-.01-.11-.03-.16-.04"/>
    <line class="cls-1" x1="49.97" y1="145.24" x2="50.1" y2="145.2"/>
    <line class="cls-1" x1="54.22" y1="133.25" x2="54.22" y2="133.22"/>
    <path class="cls-1" d="M50.68,132.38s.04-.01.06-.02"/>
    <line class="cls-1" x1="50.55" y1="132.42" x2="50.68" y2="132.38"/>
    <line class="cls-1" x1="50.49" y1="157.71" x2="50.62" y2="157.68"/>
    <path class="cls-1" d="M50.49,157.71s-.05.02-.08.04"/>
    <line class="cls-1" x1="54.15" y1="158.58" x2="52.85" y2="158.47"/>
    <line class="cls-1" x1="54.15" y1="158.58" x2="54.15" y2="158.54"/>
    <path class="cls-1" d="M50.62,157.68s0,0,.01,0"/>
    <line class="cls-1" x1="50.51" y1="151.4" x2="50.63" y2="151.36"/>
    <path class="cls-1" d="M50.51,151.4s-.05.02-.08.04"/>
    <line class="cls-1" x1="54.16" y1="152.26" x2="52.89" y2="152.15"/>
    <line class="cls-1" x1="54.16" y1="152.26" x2="54.17" y2="152.22"/>
    <path class="cls-1" d="M50.63,151.36s.02,0,.03,0"/>
    <line class="cls-1" x1="50.52" y1="145.08" x2="50.65" y2="145.04"/>
    <path class="cls-1" d="M50.52,145.08s-.05.02-.08.04"/>
    <line class="cls-1" x1="54.18" y1="145.93" x2="52.93" y2="145.83"/>
    <line class="cls-1" x1="54.18" y1="145.93" x2="54.19" y2="145.9"/>
    <path class="cls-1" d="M50.65,145.04s.02,0,.04-.01"/>
    <path class="cls-1" d="M50.54,138.76s-.05.02-.08.04"/>
    <path class="cls-1" d="M50.67,138.72s.03,0,.05-.01"/>
    <line class="cls-1" x1="47.93" y1="133.48" x2="48.44" y2="133.01"/>
    <line class="cls-1" x1="48.52" y1="132.96" x2="48.65" y2="132.92"/>
    <line class="cls-1" x1="52.28" y1="159.19" x2="47.87" y2="158.82"/>
    <path class="cls-1" d="M48.46,158.31s-.05.02-.08.04"/>
    <line class="cls-1" x1="48.46" y1="158.31" x2="48.59" y2="158.27"/>
    <path class="cls-1" d="M49.41,157.61c-.1.01-.2.01-.3,0"/>
    <path class="cls-1" d="M49.11,157.61c-.18-.02-.35-.07-.52-.15"/>
    <line class="cls-1" x1="48.59" y1="157.47" x2="48.46" y2="157.4"/>
    <path class="cls-1" d="M48.46,157.4s-.05-.03-.08-.06"/>
    <line class="cls-1" x1="48.39" y1="157.35" x2="48.14" y2="157.08"/>
    <line class="cls-1" x1="52.29" y1="152.86" x2="47.89" y2="152.49"/>
    <path class="cls-1" d="M48.48,151.99s-.05.02-.08.04"/>
    <line class="cls-1" x1="48.48" y1="151.99" x2="48.61" y2="151.95"/>
    <path class="cls-1" d="M49.42,151.28c-.1.01-.2.02-.3,0"/>
    <path class="cls-1" d="M49.12,151.29c-.18-.02-.35-.07-.52-.15"/>
    <line class="cls-1" x1="48.61" y1="151.14" x2="48.48" y2="151.08"/>
    <path class="cls-1" d="M48.48,151.08s-.05-.03-.08-.06"/>
    <line class="cls-1" x1="48.4" y1="151.02" x2="48.15" y2="150.74"/>
    <line class="cls-1" x1="52.31" y1="146.52" x2="47.9" y2="146.16"/>
    <path class="cls-1" d="M48.49,145.65s-.05.02-.08.04"/>
    <line class="cls-1" x1="48.49" y1="145.65" x2="48.62" y2="145.61"/>
    <line class="cls-1" x1="49.44" y1="144.94" x2="51.25" y2="144.7"/>
    <path class="cls-1" d="M49.44,144.94c-.1.01-.2.02-.3,0"/>
    <path class="cls-1" d="M49.14,144.95c-.18-.02-.35-.06-.52-.15"/>
    <line class="cls-1" x1="48.62" y1="144.8" x2="48.49" y2="144.74"/>
    <path class="cls-1" d="M48.49,144.74s-.05-.03-.08-.06"/>
    <line class="cls-1" x1="47.92" y1="139.82" x2="48.43" y2="139.36"/>
    <path class="cls-1" d="M48.51,139.31s-.05.02-.08.04"/>
    <line class="cls-1" x1="49.45" y1="138.6" x2="51.29" y2="138.34"/>
    <path class="cls-1" d="M49.45,138.6c-.1.01-.2.02-.3,0"/>
    <path class="cls-1" d="M49.15,138.61c-.18-.02-.35-.06-.52-.14"/>
    <line class="cls-1" x1="48.64" y1="138.46" x2="48.51" y2="138.4"/>
    <path class="cls-1" d="M48.51,138.4s-.05-.03-.08-.06"/>
    <line class="cls-1" x1="48.43" y1="138.34" x2="48.16" y2="138.05"/>
    <line class="cls-1" x1="49.47" y1="132.25" x2="51.33" y2="131.98"/>
    <path class="cls-1" d="M49.47,132.25c-.1.01-.2.02-.3,0"/>
    <path class="cls-1" d="M49.17,132.26c-.18-.02-.35-.06-.52-.14"/>
    <line class="cls-1" x1="48.65" y1="132.11" x2="48.52" y2="132.05"/>
    <path class="cls-1" d="M48.52,132.05s-.05-.03-.08-.06"/>
    <line class="cls-1" x1="48.45" y1="131.99" x2="48.17" y2="131.7"/>
    <line class="cls-1" x1="54.34" y1="139.61" x2="55.06" y2="139.41"/>
    <line class="cls-1" x1="54.2" y1="139.6" x2="52.97" y2="139.5"/>
    <path class="cls-1" d="M46.85,139.76s-.11.03-.14.06"/>
    <line class="cls-1" x1="51.62" y1="138.41" x2="51.73" y2="138.42"/>
    <path class="cls-1" d="M54.75,140.59s.06,0,.09,0"/>
    <path class="cls-1" d="M55.06,139.04c0-.17-.12-.36-.31-.38"/>
    <path class="cls-1" d="M47.33,137.97c-.1,0-.53-.05-.62-.14"/>
    <path class="cls-1" d="M54.08,121.13s-.06,0-.1-.01c-.02,0-.03,0-.05,0,0,0-.04,0-.04-.02"/>
    <path class="cls-1" d="M57.03,121.31c-.12.03-.36.03-.48.02"/>
    <line class="cls-1" x1="56.57" y1="171.24" x2="54.11" y2="171"/>
    <path class="cls-1" d="M50.82,164c-.06,0-.11-.01-.17-.02"/>
    <line class="cls-1" x1="52.2" y1="164.18" x2="52.42" y2="164.16"/>
    <line class="cls-1" x1="51.36" y1="164.44" x2="51.71" y2="164.4"/>
    <path class="cls-1" d="M51.36,164.44s-.02,0-.03,0"/>
    <line class="cls-1" x1="51.27" y1="164.47" x2="51.15" y2="164.56"/>
    <line class="cls-1" x1="49.88" y1="164.9" x2="49.32" y2="165.3"/>
    <path class="cls-1" d="M49.97,164.86s-.02,0-.03,0"/>
    <line class="cls-1" x1="56" y1="164.78" x2="56.21" y2="164.72"/>
    <path class="cls-1" d="M56.07,164.59s.07.02.1.03c.02,0,.08.03.08.07"/>
    <path class="cls-1" d="M55.38,165.49c-.06,0-.13-.02-.19-.04"/>
    <line class="cls-1" x1="55.9" y1="165.33" x2="57.9" y2="164.72"/>
    <line class="cls-1" x1="50.41" y1="165.4" x2="51.14" y2="165.46"/>
    <line class="cls-1" x1="49.32" y1="165.3" x2="50.41" y2="165.4"/>
    <line class="cls-1" x1="54.51" y1="165.75" x2="55.38" y2="165.49"/>
    <line class="cls-1" x1="46.79" y1="165.44" x2="51.39" y2="164.05"/>
    <path class="cls-1" d="M58.78,166.38c0,.13-.07.27-.21.31"/>
    <line class="cls-1" x1="58.78" y1="165.15" x2="58.78" y2="166.38"/>
    <path class="cls-1" d="M58.47,164.78c.19.02.31.2.31.38"/>
    <line class="cls-1" x1="51.32" y1="125.29" x2="51.31" y2="125.23"/>
    <path class="cls-1" d="M51.32,125.29c-.13.01-.27.01-.4,0"/>
    <path class="cls-1" d="M50.92,125.29c-.17-.01-.34-.05-.51-.1"/>
    <line class="cls-1" x1="50.41" y1="125.2" x2="50.2" y2="125.13"/>
    <line class="cls-1" x1="52.85" y1="125.45" x2="53.2" y2="125.4"/>
    <path class="cls-1" d="M52.85,125.45s-.02,0-.02,0"/>
    <line class="cls-1" x1="52.76" y1="125.49" x2="52.69" y2="125.54"/>
    <path class="cls-1" d="M51.46,125.81s-.02,0-.02,0"/>
    <line class="cls-1" x1="51.37" y1="125.85" x2="51.3" y2="125.9"/>
    <line class="cls-1" x1="50.91" y1="125.95" x2="51.26" y2="125.9"/>
    <path class="cls-1" d="M50.07,126.17s-.02,0-.02,0"/>
    <line class="cls-1" x1="50.07" y1="126.17" x2="50.41" y2="126.12"/>
    <path class="cls-1" d="M56.11,126.15c-.12.03-.36,0-.48-.03"/>
    <line class="cls-1" x1="56.11" y1="126.15" x2="56.32" y2="126.1"/>
    <path class="cls-1" d="M56.18,125.97s.07.02.1.03c.02,0,.03.01.05.02,0,0,.04.02.03.04"/>
    <path class="cls-1" d="M55.49,126.78c-.06,0-.13-.02-.19-.03"/>
    <line class="cls-1" x1="56.01" y1="126.64" x2="58.24" y2="126.06"/>
    <line class="cls-1" x1="50.51" y1="126.7" x2="51.24" y2="126.76"/>
    <line class="cls-1" x1="49.41" y1="126.62" x2="50.51" y2="126.7"/>
    <line class="cls-1" x1="54.62" y1="127" x2="55.49" y2="126.78"/>
    <line class="cls-1" x1="46.87" y1="126.75" x2="52.37" y2="125.32"/>
    <path class="cls-1" d="M58.9,127.48c0,.14-.08.28-.22.32"/>
    <line class="cls-1" x1="58.91" y1="126.25" x2="58.9" y2="127.48"/>
    <line class="cls-1" x1="51.59" y1="132.16" x2="51.58" y2="132.17"/>
    <path class="cls-1" d="M54.77,134.22s.06,0,.09,0"/>
    <path class="cls-1" d="M47.35,131.62c-.1,0-.53-.05-.62-.14"/>
    <line class="cls-1" x1="54.36" y1="133.27" x2="55.08" y2="133.08"/>
    <line class="cls-1" x1="54.22" y1="133.25" x2="53.01" y2="133.16"/>
    <path class="cls-1" d="M51.59,132.16s.03,0,.05-.02"/>
    <line class="cls-1" x1="51.63" y1="132.1" x2="51.7" y2="132.11"/>
    <path class="cls-1" d="M46.86,133.42s-.11.03-.14.06"/>
    <path class="cls-1" d="M47.02,166.31c-.16-.01-.32-.03-.48-.06-.08-.02-.16-.03-.24-.06-.04-.01-.08-.03-.11-.05-.03-.02-.08-.04-.08-.09"/>
    <path class="cls-1" d="M47.1,127.57c-.16-.01-.32-.03-.48-.05-.08-.01-.16-.03-.23-.05-.04-.01-.08-.02-.11-.04-.03-.01-.09-.04-.09-.08"/>
    <line class="cls-1" x1="58.99" y1="165.28" x2="58.99" y2="166.5"/>
    <line class="cls-1" x1="59.12" y1="126.35" x2="59.12" y2="127.59"/>
  </g>
  <g id="_图层_3" data-name="图层 3">
    <polygon class="cls-2" points="14.93 165.23 44.38 161.65 47.95 191.04 14.93 165.23"/>
    <rect class="cls-2" x="16.53" y="169.97" width="18.61" height="30.64" transform="translate(119.74 23.49) rotate(38.07)"/>
  </g>
</svg>