<?xml version="1.0" encoding="UTF-8"?>
<svg xmlns="http://www.w3.org/2000/svg" viewBox="0 0 421.18 366.51">
  <defs>
    <style>
      .cls-1 {
        stroke-width: 2px;
      }

      .cls-1, .cls-2 {
        fill: none;
        stroke: #000;
        stroke-miterlimit: 10;
      }

      .cls-2 {
        stroke-width: .75px;
      }

      .cls-3 {
        fill: red;
        stroke-width: 0px;
      }
    </style>
  </defs>
  <g id="_图层_2" data-name="图层 2">
    <rect class="cls-1" x="1" y="1" width="419.18" height="364.51" rx="2.83" ry="2.83"/>
  </g>
  <g id="_图层_1" data-name="图层 1">
    <line class="cls-2" x1="169.47" y1="136.99" x2="170.8" y2="230.87"/>
    <line class="cls-2" x1="163.58" y1="232.71" x2="163.8" y2="246.6"/>
    <line class="cls-2" x1="161.86" y1="122.82" x2="162.09" y2="137.34"/>
    <path class="cls-2" d="M168.99,136.35c.18.06.33.19.42.36"/>
    <line class="cls-2" x1="132.68" y1="140.06" x2="132.67" y2="140.05"/>
    <line class="cls-2" x1="180.25" y1="157.2" x2="169.78" y2="158.65"/>
    <line class="cls-2" x1="180.22" y1="154.59" x2="171.03" y2="151.55"/>
    <line class="cls-2" x1="180.39" y1="169.09" x2="169.95" y2="170.6"/>
    <line class="cls-2" x1="180.36" y1="166.49" x2="171.19" y2="163.31"/>
    <line class="cls-2" x1="180.54" y1="180.92" x2="170.11" y2="182.5"/>
    <line class="cls-2" x1="180.5" y1="178.33" x2="171.36" y2="175.02"/>
    <line class="cls-2" x1="180.68" y1="192.7" x2="170.28" y2="194.34"/>
    <line class="cls-2" x1="180.65" y1="190.12" x2="171.52" y2="186.67"/>
    <line class="cls-2" x1="180.82" y1="204.42" x2="170.45" y2="206.12"/>
    <line class="cls-2" x1="180.79" y1="201.85" x2="171.68" y2="198.27"/>
    <line class="cls-2" x1="179.65" y1="147.39" x2="170.98" y2="148.55"/>
    <line class="cls-2" x1="190.11" y1="143.26" x2="175.42" y2="138.68"/>
    <line class="cls-2" x1="190.84" y1="215.8" x2="176.35" y2="209.91"/>
    <line class="cls-2" x1="77.67" y1="164.44" x2="117.88" y2="133.31"/>
    <path class="cls-2" d="M78.13,221.79c.79-.13,1.26-.94,1.51-1.56.28-.69.42-1.48.49-2.21"/>
    <path class="cls-2" d="M84.47,220.74c.79-.13,1.27-.93,1.52-1.56.28-.69.43-1.48.5-2.21"/>
    <line class="cls-2" x1="131.99" y1="238.45" x2="91.36" y2="220.24"/>
    <path class="cls-2" d="M78.85,178.25c-.18-1.21-.5-2.48-.98-3.61-.4-.94-1.19-2.42-2.29-2.87"/>
    <path class="cls-2" d="M85.26,177.34c-.17-1.21-.5-2.47-.98-3.6-.4-.94-1.2-2.41-2.3-2.85"/>
    <line class="cls-2" x1="67.72" y1="168.55" x2="64.63" y2="167.28"/>
    <line class="cls-2" x1="74.07" y1="167.68" x2="70.96" y2="166.42"/>
    <line class="cls-2" x1="69.62" y1="206.97" x2="1" y2="217.67"/>
    <line class="cls-2" x1="1" y1="191.99" x2="65.95" y2="182.69"/>
    <line class="cls-2" x1="405.64" y1="365.11" x2="417.82" y2="10.44"/>
    <line class="cls-2" x1="272.37" y1="118.85" x2="268.67" y2="117.92"/>
    <line class="cls-2" x1="246.35" y1="189.8" x2="249.03" y2="189.36"/>
    <path class="cls-2" d="M252.1,194.47c.1-.25.14-.5.14-.76"/>
    <line class="cls-2" x1="246.38" y1="178.59" x2="249.25" y2="178.14"/>
    <path class="cls-2" d="M252.13,183.15c.11-.25.14-.51.14-.78"/>
    <path class="cls-2" d="M252.15,171.79c.11-.26.14-.52.14-.79"/>
    <path class="cls-2" d="M252.17,160.37c.11-.26.15-.53.15-.81"/>
    <line class="cls-2" x1="257.51" y1="119.41" x2="269" y2="118"/>
    <line class="cls-2" x1="256.93" y1="124.13" x2="256.94" y2="120.04"/>
    <path class="cls-2" d="M242.24,134.48c.31-.3.62-.6.93-.9"/>
    <path class="cls-2" d="M252.19,148.9c.12-.27.15-.54.15-.83"/>
    <line class="cls-2" x1="250.06" y1="144.19" x2="246.31" y2="144.7"/>
    <line class="cls-2" x1="249.04" y1="189.37" x2="246.26" y2="189.82"/>
    <line class="cls-2" x1="252.02" y1="190.43" x2="243.49" y2="187.38"/>
    <line class="cls-2" x1="252.06" y1="179.11" x2="243.5" y2="176.16"/>
    <path class="cls-2" d="M252.17,171.2s.07.01.11,0"/>
    <line class="cls-2" x1="247.25" y1="155.02" x2="247.98" y2="154.99"/>
    <path class="cls-2" d="M256.68,207.23c0,.26-.03.5-.13.74"/>
    <path class="cls-2" d="M252.35,145.85c0-.5-.15-1.12-.48-1.53"/>
    <path class="cls-2" d="M256.91,137.16c0,.29-.04.56-.16.84"/>
    <line class="cls-2" x1="170.24" y1="231.54" x2="163.57" y2="232.73"/>
    <line class="cls-2" x1="256.91" y1="134.92" x2="256.91" y2="137.16"/>
    <path class="cls-2" d="M170.66,231.29c-.1.13-.25.23-.42.26"/>
    <path class="cls-2" d="M251.43,149.38c.37.11.63-.18.76-.48"/>
    <path class="cls-2" d="M128.03,252.73c.08-.01.15-.04.22-.08.09-.05.17-.12.24-.2.22-.24.37-.55.48-.85.18-.49.27-.98.33-1.49.1-1,.04-2.07-.14-3.05-.17-.98-.48-2.02-.92-2.91-.23-.46-.48-.89-.82-1.29-.21-.24-.46-.48-.75-.63-.17-.09-.33-.14-.53-.1"/>
    <path class="cls-2" d="M123.47,258.92c-1.27-.65-2.25-2.01-2.88-3.18-.69-1.26-1.19-2.68-1.54-4.06"/>
    <path class="cls-2" d="M251.41,160.85c.37.11.63-.18.76-.48"/>
    <path class="cls-2" d="M124.88,128.85c.21-.02.36-.12.51-.26.24-.23.42-.53.56-.82.22-.49.35-.99.44-1.52.17-1.02.17-2.13.04-3.15-.13-1.02-.39-2.1-.8-3.05-.21-.49-.46-.94-.79-1.37-.2-.25-.45-.51-.74-.67-.1-.05-.2-.1-.31-.12-.08-.02-.17-.02-.25-.01"/>
    <path class="cls-2" d="M251.38,172.26c.38.12.63-.17.76-.48"/>
    <path class="cls-2" d="M155.79,107.28c1.42.39,2.5,1.65,3.22,2.8.76,1.22,1.3,2.64,1.66,4.01"/>
    <line class="cls-2" x1="148.22" y1="105.18" x2="155.8" y2="107.28"/>
    <line class="cls-2" x1="153.11" y1="205.87" x2="153.06" y2="203.23"/>
    <path class="cls-2" d="M251.36,183.63c.38.12.64-.16.77-.47"/>
    <path class="cls-2" d="M251.33,194.94c.38.13.64-.16.77-.47"/>
    <line class="cls-2" x1="256.69" y1="205.05" x2="256.68" y2="207.23"/>
    <path class="cls-2" d="M242.72,152.76c-.14-.04-.36-.12-.48-.23"/>
    <path class="cls-2" d="M242.73,134.93c-.11-.03-.22-.06-.32-.11-.07-.03-.23-.11-.23-.22"/>
    <path class="cls-2" d="M242.73,141.38c-.14-.04-.37-.12-.49-.23"/>
    <path class="cls-2" d="M242.72,164.09c-.14-.05-.35-.13-.47-.24"/>
    <path class="cls-2" d="M242.72,175.36c-.14-.05-.35-.13-.46-.24"/>
    <path class="cls-2" d="M242.71,186.59c-.14-.05-.34-.13-.45-.24"/>
    <path class="cls-2" d="M242.7,203.82c-.12-.04-.23-.09-.33-.15-.09-.05-.21-.15-.21-.28"/>
    <path class="cls-2" d="M91.36,220.24c-.72-.32-1.51-.38-2.28-.25"/>
    <path class="cls-2" d="M244.09,145.26c-.2.03-.76.11-.92.27"/>
    <line class="cls-2" x1="250.64" y1="147.01" x2="245.47" y2="145.56"/>
    <line class="cls-2" x1="250.64" y1="147.01" x2="252.35" y2="146.77"/>
    <line class="cls-2" x1="145.27" y1="137.32" x2="152.63" y2="136.4"/>
    <line class="cls-2" x1="152.63" y1="136.4" x2="154.38" y2="236.58"/>
    <line class="cls-2" x1="154.38" y1="236.58" x2="147.17" y2="237.88"/>
    <path class="cls-2" d="M243.51,142.21c-.1-.03-.26-.09-.34-.16"/>
    <path class="cls-2" d="M252.22,148.32s.06.01.09,0"/>
    <path class="cls-2" d="M243.52,133.88c-.09-.02-.18-.05-.26-.1-.09-.05-.18-.12-.09-.21"/>
    <line class="cls-2" x1="244.1" y1="133.31" x2="251.37" y2="132.37"/>
    <line class="cls-2" x1="255" y1="135.07" x2="256.91" y2="134.81"/>
    <line class="cls-2" x1="248.86" y1="133.43" x2="250.15" y2="133.77"/>
    <line class="cls-2" x1="250.15" y1="133.77" x2="251.01" y2="134"/>
    <path class="cls-2" d="M295.1,292.23c3.84-.87,6.63-3.74,8.47-6.94"/>
    <path class="cls-2" d="M295.4,55.32c4.03,6.2,6.87,13.42,8.66,20.53,1.81,7.19,2.69,14.76,2.59,22.17"/>
    <line class="cls-2" x1="302.82" y1="289.77" x2="301.82" y2="293"/>
    <line class="cls-2" x1="251.01" y1="134" x2="255" y2="135.07"/>
    <line class="cls-2" x1="249.63" y1="132.74" x2="250.03" y2="132.71"/>
    <path class="cls-2" d="M249.63,132.74s0,0-.01,0"/>
    <line class="cls-2" x1="249.52" y1="132.79" x2="248.86" y2="133.43"/>
    <line class="cls-2" x1="244.05" y1="202.03" x2="249.08" y2="201.19"/>
    <line class="cls-2" x1="254.81" y1="204.32" x2="256.5" y2="204.03"/>
    <line class="cls-2" x1="248.75" y1="202.2" x2="250.02" y2="202.64"/>
    <line class="cls-2" x1="250.02" y1="202.64" x2="250.87" y2="202.94"/>
    <line class="cls-2" x1="272.34" y1="123.56" x2="272.37" y2="118.85"/>
    <line class="cls-2" x1="289.52" y1="128" x2="272.34" y2="123.56"/>
    <line class="cls-2" x1="288.69" y1="213.79" x2="289.52" y2="128"/>
    <path class="cls-2" d="M304.34,275.75c-.07,5.74-.81,11.72-2.51,17.24"/>
    <line class="cls-2" x1="289.81" y1="56.46" x2="240.61" y2="47.81"/>
    <line class="cls-2" x1="288.69" y1="213.62" x2="267.22" y2="217.48"/>
    <path class="cls-2" d="M256.16,203.45c.37.42.53,1.08.53,1.6"/>
    <path class="cls-2" d="M256.45,133.41c.33.41.47,1.02.47,1.52"/>
    <path class="cls-2" d="M251.87,144.33c-.11-.13-.26-.26-.43-.31"/>
    <line class="cls-2" x1="250.87" y1="202.94" x2="254.81" y2="204.32"/>
    <line class="cls-2" x1="243.49" y1="179.76" x2="252.14" y2="182.57"/>
    <line class="cls-2" x1="243.5" y1="168.51" x2="252.17" y2="171.2"/>
    <line class="cls-2" x1="252.09" y1="167.73" x2="243.5" y2="164.9"/>
    <line class="cls-2" x1="245.47" y1="145.56" x2="246.07" y2="144.82"/>
    <path class="cls-2" d="M247.27,144.86c-.23-.15-.5-.24-.79-.2"/>
    <path class="cls-2" d="M247.21,190.03c-.25-.17-.54-.28-.86-.23"/>
    <line class="cls-2" x1="245.43" y1="190.61" x2="246.02" y2="189.91"/>
    <path class="cls-2" d="M247.22,178.81c-.24-.17-.53-.27-.84-.22"/>
    <line class="cls-2" x1="245.44" y1="179.42" x2="246.03" y2="178.72"/>
    <path class="cls-2" d="M247.24,167.55c-.24-.16-.52-.26-.82-.21"/>
    <line class="cls-2" x1="245.45" y1="168.18" x2="246.05" y2="167.47"/>
    <line class="cls-2" x1="245.46" y1="156.89" x2="246.06" y2="156.17"/>
    <line class="cls-2" x1="252.12" y1="156.31" x2="243.51" y2="153.58"/>
    <path class="cls-2" d="M249.91,201.6c.38.01.74.15,1.05.34"/>
    <line class="cls-2" x1="243.48" y1="199.1" x2="256.46" y2="203.93"/>
    <line class="cls-2" x1="243.52" y1="130.11" x2="256.73" y2="133.91"/>
    <line class="cls-2" x1="252.16" y1="144.83" x2="243.51" y2="142.21"/>
    <line class="cls-2" x1="252.15" y1="144.82" x2="251.74" y2="144.7"/>
    <line class="cls-2" x1="243.51" y1="145.86" x2="252.22" y2="148.32"/>
    <line class="cls-2" x1="252.24" y1="193.71" x2="252.24" y2="191.53"/>
    <path class="cls-2" d="M252.24,191.53c0-.52-.16-1.17-.52-1.58"/>
    <line class="cls-2" x1="252.27" y1="182.38" x2="252.27" y2="180.19"/>
    <path class="cls-2" d="M252.27,180.19c0-.52-.16-1.16-.51-1.57"/>
    <line class="cls-2" x1="252.29" y1="170.99" x2="252.3" y2="168.8"/>
    <path class="cls-2" d="M252.3,168.8c0-.51-.15-1.15-.5-1.56"/>
    <line class="cls-2" x1="252.32" y1="159.56" x2="252.32" y2="157.35"/>
    <path class="cls-2" d="M252.32,157.35c0-.51-.15-1.13-.49-1.54"/>
    <line class="cls-2" x1="252.34" y1="148.07" x2="252.35" y2="145.85"/>
    <line class="cls-2" x1="250.96" y1="201.94" x2="251.07" y2="201.93"/>
    <line class="cls-2" x1="250.96" y1="201.94" x2="254.81" y2="204.32"/>
    <line class="cls-2" x1="116.23" y1="134.58" x2="116.12" y2="134.55"/>
    <line class="cls-2" x1="133.23" y1="140.04" x2="132.91" y2="140.08"/>
    <path class="cls-2" d="M163.58,232.71c0-.08-.3-.36-.34-.39"/>
    <path class="cls-2" d="M249.51,201.59s-.08.01-.11.04"/>
    <line class="cls-2" x1="249.4" y1="201.63" x2="248.75" y2="202.2"/>
    <path class="cls-2" d="M163.8,246.6c.04,2.49-.2,5.15-.92,7.56"/>
    <line class="cls-2" x1="249.91" y1="201.6" x2="250.11" y2="201.57"/>
    <line class="cls-2" x1="162.04" y1="134.18" x2="168.99" y2="136.35"/>
    <path class="cls-2" d="M162.88,254.17c-.23.77-.57,1.56-1.07,2.21-.5.65-1.17,1.17-2.01,1.33"/>
    <path class="cls-2" d="M260.88,125.01c-.24.03-.66.03-.89-.03"/>
    <line class="cls-2" x1="257.05" y1="124.2" x2="259.99" y2="124.98"/>
    <line class="cls-2" x1="115.14" y1="132.75" x2="114.83" y2="120.65"/>
    <path class="cls-2" d="M116.12,134.55c-.71-.24-.96-1.17-.98-1.79"/>
    <path class="cls-2" d="M257.05,124.2s-.12-.02-.12-.07"/>
    <path class="cls-2" d="M147.07,105.08c.4-.04.77,0,1.15.1"/>
    <line class="cls-2" x1="128.72" y1="252.61" x2="128.03" y2="252.73"/>
    <line class="cls-2" x1="126.14" y1="242.12" x2="126.8" y2="242"/>
    <path class="cls-2" d="M243.51,153.58c-.1-.03-.25-.09-.33-.17"/>
    <path class="cls-2" d="M252.2,159.79s.07.01.11,0"/>
    <line class="cls-2" x1="153.32" y1="217.86" x2="153.27" y2="215.24"/>
    <line class="cls-2" x1="152.89" y1="193.82" x2="152.85" y2="191.17"/>
    <line class="cls-2" x1="152.68" y1="181.71" x2="152.63" y2="179.05"/>
    <line class="cls-2" x1="152.46" y1="169.54" x2="152.42" y2="166.87"/>
    <line class="cls-2" x1="152.03" y1="145.03" x2="151.88" y2="136.49"/>
    <path class="cls-2" d="M244.09,156.58c-.2.03-.74.12-.92.28"/>
    <line class="cls-2" x1="250.62" y1="158.42" x2="245.46" y2="156.89"/>
    <line class="cls-2" x1="250.62" y1="158.42" x2="252.32" y2="158.17"/>
    <path class="cls-2" d="M119.11,251.62c.32,1.29.81,2.62,1.45,3.79.56,1.03,1.5,2.45,2.64,3.03"/>
    <line class="cls-2" x1="246.07" y1="143" x2="246.06" y2="142.98"/>
    <path class="cls-2" d="M246.16,143.11s-.06-.07-.09-.12"/>
    <path class="cls-2" d="M119.62,108.91c-1.1-.32-2.04.3-2.68,1.11-.63.8-1.03,1.83-1.26,2.79"/>
    <path class="cls-2" d="M131.32,117.53c-.33-1.27-.83-2.57-1.49-3.71-.57-.98-1.59-2.37-2.83-2.73"/>
    <line class="cls-2" x1="246.31" y1="143.25" x2="246.16" y2="143.11"/>
    <path class="cls-2" d="M246.91,143.61c-.24-.07-.42-.19-.6-.36"/>
    <path class="cls-2" d="M247.27,143.65c-.12,0-.24,0-.35-.04"/>
    <line class="cls-2" x1="247.27" y1="143.65" x2="248.12" y2="143.6"/>
    <line class="cls-2" x1="152.24" y1="156.64" x2="152.19" y2="153.95"/>
    <path class="cls-2" d="M246.15,154.47s-.05-.05-.07-.08"/>
    <line class="cls-2" x1="246.3" y1="154.61" x2="246.15" y2="154.47"/>
    <path class="cls-2" d="M246.9,154.98c-.24-.07-.42-.2-.6-.36"/>
    <path class="cls-2" d="M247.25,155.02c-.12,0-.24-.01-.35-.05"/>
    <line class="cls-2" x1="246.15" y1="156.1" x2="246.3" y2="156.06"/>
    <path class="cls-2" d="M246.15,156.1s-.06.03-.09.06"/>
    <path class="cls-2" d="M246.14,165.78s-.01-.01-.02-.02"/>
    <line class="cls-2" x1="169.74" y1="156.02" x2="180.22" y2="154.59"/>
    <line class="cls-2" x1="169.91" y1="167.99" x2="180.36" y2="166.49"/>
    <line class="cls-2" x1="170.08" y1="179.9" x2="180.5" y2="178.33"/>
    <line class="cls-2" x1="170.25" y1="191.75" x2="180.65" y2="190.12"/>
    <line class="cls-2" x1="170.41" y1="203.54" x2="180.79" y2="201.85"/>
    <line class="cls-2" x1="170.95" y1="145.88" x2="179.62" y2="144.74"/>
    <line class="cls-2" x1="179.62" y1="144.74" x2="190.11" y2="143.26"/>
    <line class="cls-2" x1="175.42" y1="138.68" x2="169.5" y2="139.38"/>
    <line class="cls-2" x1="246.29" y1="165.92" x2="246.14" y2="165.78"/>
    <line class="cls-2" x1="170.88" y1="218.71" x2="171.97" y2="219.17"/>
    <line class="cls-2" x1="180.51" y1="217.7" x2="190.84" y2="215.8"/>
    <line class="cls-2" x1="176.35" y1="209.91" x2="170.51" y2="210.81"/>
    <line class="cls-2" x1="162.03" y1="133.62" x2="174.25" y2="132.14"/>
    <path class="cls-2" d="M246.89,166.29c-.24-.08-.42-.2-.6-.37"/>
    <path class="cls-2" d="M247.24,166.34c-.12,0-.24-.02-.35-.05"/>
    <line class="cls-2" x1="134.3" y1="139.96" x2="133.1" y2="140.1"/>
    <path class="cls-2" d="M162.64,254.39c-.1.26-.21.51-.35.76"/>
    <path class="cls-2" d="M160.56,114.04c.01.05.03.11.04.16"/>
    <path class="cls-2" d="M169.59,145.48c.09,0,.17.02.26.05"/>
    <path class="cls-2" d="M170.62,218.65c.09.01.17.03.26.06"/>
    <line class="cls-2" x1="175.86" y1="147.9" x2="175.93" y2="153.17"/>
    <line class="cls-2" x1="175.99" y1="157.79" x2="176.09" y2="165.01"/>
    <line class="cls-2" x1="176.15" y1="169.71" x2="176.24" y2="176.79"/>
    <line class="cls-2" x1="176.3" y1="181.56" x2="176.39" y2="188.51"/>
    <line class="cls-2" x1="176.45" y1="193.36" x2="176.54" y2="200.18"/>
    <line class="cls-2" x1="176.6" y1="205.11" x2="176.67" y2="210.04"/>
    <path class="cls-2" d="M162.09,137.34c0,.23-.21.54-.33.7"/>
    <path class="cls-2" d="M169.4,136.71c.04.09.06.18.06.28"/>
    <path class="cls-2" d="M170.8,230.87c0,.16-.04.29-.14.42"/>
    <line class="cls-2" x1="159.8" y1="257.7" x2="132.64" y2="262.89"/>
    <path class="cls-2" d="M133.09,140.1c-.14.02-.28,0-.41-.04"/>
    <path class="cls-2" d="M160.67,114.1c.74,2.82,1.14,5.81,1.19,8.72"/>
    <line class="cls-2" x1="247.24" y1="166.34" x2="247.84" y2="166.33"/>
    <path class="cls-2" d="M132.64,262.89c-.68.13-1.35-.01-1.96-.32"/>
    <line class="cls-2" x1="130.68" y1="262.57" x2="123.48" y2="258.92"/>
    <path class="cls-2" d="M119.05,251.67c-.68-2.71-1.08-5.58-1.15-8.38"/>
    <line class="cls-2" x1="246.13" y1="167.41" x2="246.28" y2="167.36"/>
    <line class="cls-2" x1="117.9" y1="243.29" x2="117.61" y2="232.01"/>
    <path class="cls-2" d="M246.13,167.41s-.06.03-.09.06"/>
    <path class="cls-2" d="M114.83,120.65c-.07-2.66.15-5.47.78-8.07"/>
    <path class="cls-2" d="M115.61,112.58c.24-.97.61-2,1.18-2.83.57-.84,1.4-1.55,2.48-1.67"/>
    <path class="cls-2" d="M174.74,132.18c.62.19.93.81.94,1.4"/>
    <path class="cls-2" d="M173.21,131.71c-.17-.05-.32-.06-.5-.04"/>
    <line class="cls-2" x1="173.21" y1="131.71" x2="174.74" y2="132.18"/>
    <line class="cls-2" x1="250.59" y1="169.77" x2="245.45" y2="168.18"/>
    <line class="cls-2" x1="246.27" y1="177.18" x2="246.17" y2="177.08"/>
    <line class="cls-2" x1="119.27" y1="108.08" x2="147.07" y2="105.08"/>
    <path class="cls-2" d="M246.87,177.56c-.24-.08-.42-.21-.6-.38"/>
    <path class="cls-2" d="M247.22,177.62c-.12,0-.24-.02-.35-.06"/>
    <line class="cls-2" x1="247.22" y1="177.62" x2="247.7" y2="177.61"/>
    <line class="cls-2" x1="246.12" y1="178.66" x2="246.27" y2="178.61"/>
    <path class="cls-2" d="M246.12,178.66s-.06.03-.09.06"/>
    <line class="cls-2" x1="250.57" y1="181.08" x2="245.44" y2="179.42"/>
    <line class="cls-2" x1="153.65" y1="236.72" x2="153.51" y2="228.49"/>
    <line class="cls-2" x1="153.32" y1="217.86" x2="154.05" y2="217.74"/>
    <line class="cls-2" x1="154.01" y1="215.11" x2="153.27" y2="215.24"/>
    <line class="cls-2" x1="153.11" y1="205.87" x2="153.84" y2="205.75"/>
    <line class="cls-2" x1="153.8" y1="203.11" x2="153.06" y2="203.23"/>
    <line class="cls-2" x1="152.89" y1="193.82" x2="153.63" y2="193.7"/>
    <line class="cls-2" x1="153.59" y1="191.06" x2="152.85" y2="191.17"/>
    <line class="cls-2" x1="152.68" y1="181.71" x2="153.42" y2="181.6"/>
    <line class="cls-2" x1="153.37" y1="178.94" x2="152.63" y2="179.05"/>
    <line class="cls-2" x1="152.46" y1="169.54" x2="153.21" y2="169.44"/>
    <line class="cls-2" x1="153.16" y1="166.76" x2="152.42" y2="166.87"/>
    <line class="cls-2" x1="152.03" y1="145.03" x2="152.78" y2="144.93"/>
    <line class="cls-2" x1="246.26" y1="188.39" x2="246.23" y2="188.36"/>
    <path class="cls-2" d="M246.86,188.77c-.24-.08-.42-.21-.6-.38"/>
    <path class="cls-2" d="M247.21,188.84c-.12,0-.23-.02-.35-.06"/>
    <line class="cls-2" x1="247.21" y1="188.84" x2="247.56" y2="188.84"/>
    <line class="cls-2" x1="246.11" y1="189.86" x2="246.26" y2="189.82"/>
    <path class="cls-2" d="M246.11,189.86s-.06.03-.09.06"/>
    <line class="cls-2" x1="250.55" y1="192.33" x2="245.43" y2="190.61"/>
    <line class="cls-2" x1="246.16" y1="144.75" x2="246.31" y2="144.7"/>
    <path class="cls-2" d="M130.4,262.08c.93.47,1.86.31,2.63-.38.7-.63,1.12-1.59,1.36-2.45"/>
    <path class="cls-2" d="M246.16,144.75s-.06.03-.09.06"/>
    <path class="cls-2" d="M243.5,164.9c-.1-.03-.25-.09-.33-.17"/>
    <path class="cls-2" d="M244.08,167.85c-.21.03-.73.12-.91.29"/>
    <line class="cls-2" x1="250.59" y1="169.77" x2="252.3" y2="169.52"/>
    <line class="cls-2" x1="154.24" y1="228.36" x2="153.51" y2="228.49"/>
    <line class="cls-2" x1="152.24" y1="156.64" x2="152.98" y2="156.54"/>
    <line class="cls-2" x1="152.93" y1="153.85" x2="152.19" y2="153.95"/>
    <path class="cls-2" d="M243.5,176.16c-.12-.04-.23-.08-.32-.17"/>
    <path class="cls-2" d="M252.14,182.57s.06.01.1,0"/>
    <path class="cls-2" d="M244.07,179.08c-.21.03-.72.13-.9.3"/>
    <line class="cls-2" x1="250.57" y1="181.08" x2="252.27" y2="180.81"/>
    <line class="cls-2" x1="244.07" y1="179.08" x2="243.56" y2="179.79"/>
    <path class="cls-2" d="M243.49,187.38c-.11-.04-.22-.08-.32-.17"/>
    <path class="cls-2" d="M252.12,193.88s.07.02.1,0"/>
    <path class="cls-2" d="M244.06,190.25c-.22.04-.71.13-.9.3"/>
    <line class="cls-2" x1="250.55" y1="192.33" x2="252.24" y2="192.05"/>
    <path class="cls-2" d="M242.18,124.55c0-.21.09-.4.24-.55"/>
    <path class="cls-2" d="M174.25,132.14c.17-.02.33,0,.49.04"/>
    <path class="cls-2" d="M242.42,124c.33-.32,1.03-.42,1.43-.47"/>
    <line class="cls-2" x1="242.17" y1="152.38" x2="242.17" y2="146.55"/>
    <path class="cls-2" d="M242.17,146.55c0,.11.15.2.23.23.1.05.21.09.32.12"/>
    <line class="cls-2" x1="242.18" y1="141.02" x2="242.18" y2="134.59"/>
    <path class="cls-2" d="M242.18,134.59c0-.05.02-.08.06-.11"/>
    <line class="cls-2" x1="242.17" y1="163.69" x2="242.17" y2="157.89"/>
    <path class="cls-2" d="M242.17,157.89c0,.12.15.2.23.24.1.05.21.09.32.13"/>
    <line class="cls-2" x1="242.17" y1="174.95" x2="242.17" y2="169.18"/>
    <path class="cls-2" d="M242.17,169.18c0,.12.14.21.22.25.1.06.21.1.33.13"/>
    <line class="cls-2" x1="242.16" y1="186.16" x2="242.16" y2="180.41"/>
    <path class="cls-2" d="M242.16,180.41c0,.12.14.21.22.26.1.06.21.1.33.14"/>
    <line class="cls-2" x1="242.16" y1="197.88" x2="242.16" y2="191.6"/>
    <line class="cls-2" x1="180.25" y1="157.2" x2="180.22" y2="154.59"/>
    <line class="cls-2" x1="171.03" y1="151.55" x2="169.68" y2="151.73"/>
    <line class="cls-2" x1="180.39" y1="169.09" x2="180.36" y2="166.49"/>
    <line class="cls-2" x1="171.19" y1="163.31" x2="169.84" y2="163.5"/>
    <line class="cls-2" x1="180.54" y1="180.92" x2="180.5" y2="178.33"/>
    <line class="cls-2" x1="171.36" y1="175.02" x2="170.01" y2="175.22"/>
    <line class="cls-2" x1="180.68" y1="192.7" x2="180.65" y2="190.12"/>
    <line class="cls-2" x1="171.52" y1="186.67" x2="170.18" y2="186.88"/>
    <line class="cls-2" x1="180.82" y1="204.42" x2="180.79" y2="201.85"/>
    <line class="cls-2" x1="171.68" y1="198.27" x2="170.34" y2="198.49"/>
    <path class="cls-2" d="M169.88,148.19c-.08-.03-.17-.04-.26-.05"/>
    <line class="cls-2" x1="170.98" y1="148.55" x2="169.88" y2="148.19"/>
    <path class="cls-2" d="M242.16,197.88c0,.09.04.14.1.2"/>
    <line class="cls-2" x1="169.85" y1="145.52" x2="170.95" y2="145.88"/>
    <line class="cls-2" x1="170.98" y1="148.55" x2="170.95" y2="145.88"/>
    <line class="cls-2" x1="179.65" y1="147.39" x2="179.62" y2="144.74"/>
    <line class="cls-2" x1="190.14" y1="145.9" x2="179.65" y2="147.39"/>
    <line class="cls-2" x1="190.14" y1="145.9" x2="190.11" y2="143.26"/>
    <path class="cls-2" d="M170.92,221.3c-.08-.04-.17-.05-.25-.06"/>
    <line class="cls-2" x1="172" y1="221.76" x2="170.92" y2="221.3"/>
    <line class="cls-2" x1="171.97" y1="219.17" x2="180.51" y2="217.7"/>
    <line class="cls-2" x1="180.54" y1="220.28" x2="172" y2="221.76"/>
    <line class="cls-2" x1="172" y1="221.76" x2="171.97" y2="219.17"/>
    <line class="cls-2" x1="180.54" y1="220.28" x2="180.51" y2="217.7"/>
    <line class="cls-2" x1="190.87" y1="218.36" x2="180.54" y2="220.28"/>
    <line class="cls-2" x1="190.87" y1="218.36" x2="190.84" y2="215.8"/>
    <line class="cls-2" x1="175.68" y1="133.58" x2="175.75" y2="138.78"/>
    <path class="cls-2" d="M242.16,191.6c0,.12.13.22.22.27.1.06.22.11.33.15"/>
    <line class="cls-2" x1="172.71" y1="131.67" x2="162.02" y2="132.94"/>
    <line class="cls-2" x1="242.16" y1="207.63" x2="242.16" y2="203.39"/>
    <path class="cls-2" d="M242.16,203.39c0-.09.04-.14.1-.19"/>
    <line class="cls-2" x1="242.18" y1="128.93" x2="242.18" y2="124.55"/>
    <line class="cls-2" x1="272.35" y1="123.56" x2="260.88" y2="125.01"/>
    <path class="cls-2" d="M242.18,128.93c0,.05.03.08.06.12"/>
    <path class="cls-2" d="M242.24,146.43c.31-.3.62-.6.93-.9"/>
    <path class="cls-2" d="M242.24,146.43s-.06.07-.06.13"/>
    <path class="cls-2" d="M243.17,145.53c-.1.09-.02.17.07.23.09.05.18.08.27.1"/>
    <line class="cls-2" x1="251.87" y1="144.33" x2="252.13" y2="144.64"/>
    <line class="cls-2" x1="288.37" y1="213.68" x2="288.69" y2="213.79"/>
    <path class="cls-2" d="M243.17,142.05l-.93-.9"/>
    <path class="cls-2" d="M242.24,141.15s-.07-.07-.07-.13"/>
    <path class="cls-2" d="M243.17,133.57c.16-.16.74-.24.93-.27"/>
    <line class="cls-2" x1="243.56" y1="179.79" x2="243.54" y2="179.82"/>
    <path class="cls-2" d="M256.75,138c-.13.3-.39.6-.77.5"/>
    <line class="cls-2" x1="256.89" y1="137.42" x2="256.78" y2="137.44"/>
    <line class="cls-2" x1="243.65" y1="145.9" x2="243.56" y2="146.03"/>
    <line class="cls-2" x1="193.03" y1="321.49" x2="189.87" y2="1"/>
    <line class="cls-2" x1="256.45" y1="133.41" x2="256.78" y2="133.82"/>
    <path class="cls-2" d="M243.18,129.95c-.31-.3-.62-.6-.94-.91"/>
    <path class="cls-2" d="M243.18,129.95c.08.08.25.13.35.16"/>
    <path class="cls-2" d="M242.24,129.04c.11.11.35.19.49.23"/>
    <path class="cls-2" d="M249.62,132.74s-.07.02-.1.05"/>
    <path class="cls-2" d="M256.66,207.39s-.07,0-.11-.01"/>
    <path class="cls-2" d="M242.26,203.2c.3-.28.6-.57.91-.85"/>
    <path class="cls-2" d="M243.17,202.34c.19-.18.66-.27.89-.31"/>
    <path class="cls-2" d="M244.74,48.54c-4.02,2.65-6.5,7.49-7.88,11.76-1.47,4.53-2.08,9.49-2.08,14.22"/>
    <path class="cls-2" d="M256.55,207.97c-.13.32-.4.61-.79.48"/>
    <path class="cls-2" d="M243.17,198.93c-.3-.29-.61-.57-.91-.86"/>
    <line class="cls-2" x1="59.93" y1="208.48" x2="59.94" y2="208.71"/>
    <path class="cls-2" d="M74.83,165.7c1.04-.14,2.03-.62,2.84-1.25"/>
    <path class="cls-2" d="M74.95,222.31c.54-.09.93-.5,1.19-.92.28-.45.44-.93.57-1.44.25-.98.31-2.08.28-3.08"/>
    <line class="cls-2" x1="75.67" y1="171.81" x2="75.61" y2="170.03"/>
    <line class="cls-2" x1="80.14" y1="218.01" x2="83.32" y2="217.49"/>
    <path class="cls-2" d="M89.66,216.46c-.07.73-.22,1.52-.5,2.21-.26.63-.74,1.42-1.53,1.55"/>
    <path class="cls-2" d="M83.32,217.49c-.07.73-.22,1.52-.5,2.21-.25.62-.73,1.43-1.52,1.56"/>
    <path class="cls-2" d="M243.17,198.93c.09.09.2.13.31.17"/>
    <path class="cls-2" d="M242.26,198.08c.13.12.28.18.44.24"/>
    <path class="cls-2" d="M243,208.58c-.41-.15-.85-.43-.85-.95"/>
    <line class="cls-2" x1="76.99" y1="216.87" x2="75.78" y2="180.49"/>
    <path class="cls-2" d="M267.22,217.48c-.12.02-.23.01-.34-.03"/>
    <line class="cls-2" x1="129.73" y1="137.72" x2="118.14" y2="133.88"/>
    <path class="cls-2" d="M72.37,172.22c.7.29,1.26,1.01,1.63,1.6.41.67.72,1.37.97,2.11.49,1.44.77,3.05.82,4.56"/>
    <path class="cls-2" d="M78.79,171.33c1.09.45,1.89,1.92,2.29,2.86.48,1.13.81,2.4.98,3.61"/>
    <line class="cls-2" x1="266.88" y1="217.45" x2="243" y2="208.58"/>
    <path class="cls-2" d="M256.94,120.04c0-.32.24-.59.56-.63"/>
    <line class="cls-2" x1="75.61" y1="170.03" x2="78.79" y2="171.33"/>
    <line class="cls-2" x1="72.41" y1="170.47" x2="75.61" y2="170.03"/>
    <line class="cls-2" x1="75.58" y1="171.77" x2="72.41" y2="170.47"/>
    <line class="cls-2" x1="243.85" y1="123.53" x2="256.94" y2="121.9"/>
    <line class="cls-2" x1="61.45" y1="167.71" x2="72.37" y2="172.22"/>
    <line class="cls-2" x1="70.9" y1="168.11" x2="67.72" y2="168.55"/>
    <line class="cls-2" x1="67.8" y1="166.85" x2="70.9" y2="168.11"/>
    <line class="cls-2" x1="74.1" y1="166" x2="77.23" y2="167.25"/>
    <path class="cls-2" d="M242.24,157.75c.31-.3.62-.59.93-.89"/>
    <line class="cls-2" x1="84.86" y1="175.42" x2="88.45" y2="176.89"/>
    <line class="cls-2" x1="78.44" y1="176.29" x2="82.06" y2="177.8"/>
    <path class="cls-2" d="M89.61,219.78c.6.05,1.16.2,1.71.44"/>
    <path class="cls-2" d="M65.8,167.75c.27-.46.69-.93,1.27-1.01"/>
    <path class="cls-2" d="M72.1,166.88c.27-.45.69-.91,1.27-.99"/>
    <path class="cls-2" d="M81.31,221.26c-.32.05-.62-.02-.91-.15"/>
    <path class="cls-2" d="M87.62,220.23c-.32.05-.63-.02-.91-.15"/>
    <line class="cls-2" x1="78.13" y1="221.79" x2="74.95" y2="222.31"/>
    <line class="cls-2" x1="84.47" y1="220.74" x2="81.31" y2="221.26"/>
    <line class="cls-2" x1="89.08" y1="219.99" x2="87.62" y2="220.23"/>
    <path class="cls-2" d="M73.37,165.89c.26-.04.49,0,.73.1"/>
    <path class="cls-2" d="M70.23,166.32c-.26.04-.47.13-.67.29"/>
    <path class="cls-2" d="M67.07,166.74c.26-.04.49,0,.73.1"/>
    <path class="cls-2" d="M63.9,167.17c-.26.04-.47.13-.67.29"/>
    <path class="cls-2" d="M60.73,167.6c.26-.04.48,0,.72.11"/>
    <line class="cls-2" x1="73.37" y1="165.89" x2="74.83" y2="165.7"/>
    <line class="cls-2" x1="67.07" y1="166.74" x2="70.23" y2="166.32"/>
    <line class="cls-2" x1="60.73" y1="167.6" x2="63.9" y2="167.17"/>
    <line class="cls-2" x1="81.97" y1="169.16" x2="82.02" y2="170.9"/>
    <path class="cls-2" d="M59.94,208.71c.05,1.48.33,3.05.8,4.46.38,1.12,1.22,3.08,2.47,3.69"/>
    <path class="cls-2" d="M242.24,157.75s-.07.08-.07.14"/>
    <path class="cls-2" d="M77.23,221.63c.28.14.59.21.9.15"/>
    <path class="cls-2" d="M74.05,222.15c.28.14.59.21.9.16"/>
    <line class="cls-2" x1="86.49" y1="216.98" x2="89.66" y2="216.46"/>
    <path class="cls-2" d="M83.56,220.59c.28.14.59.2.91.15"/>
    <path class="cls-2" d="M243.17,156.86c-.1.09-.03.18.06.24.09.05.18.08.28.11"/>
    <path class="cls-2" d="M243.17,153.42c-.31-.3-.62-.59-.93-.89"/>
    <path class="cls-2" d="M242.25,152.53s-.07-.08-.07-.14"/>
    <line class="cls-2" x1="246.45" y1="156.02" x2="249.75" y2="155.55"/>
    <line class="cls-2" x1="80.4" y1="221.11" x2="79.45" y2="220.65"/>
    <line class="cls-2" x1="86.71" y1="220.08" x2="85.78" y2="219.63"/>
    <line class="cls-2" x1="63.21" y1="216.85" x2="74.05" y2="222.15"/>
    <line class="cls-2" x1="58.64" y1="173.23" x2="59.03" y2="183.68"/>
    <path class="cls-2" d="M246.45,156.02c-.05,0-.1.02-.15.03"/>
    <path class="cls-2" d="M242.25,169.02c.31-.29.61-.59.92-.88"/>
    <line class="cls-2" x1="82.06" y1="177.8" x2="78.85" y2="178.25"/>
    <line class="cls-2" x1="88.45" y1="176.89" x2="85.26" y2="177.34"/>
    <path class="cls-2" d="M85.16,170.45c1.1.44,1.89,1.9,2.3,2.84.49,1.13.81,2.39.98,3.6"/>
    <path class="cls-2" d="M70.96,166.42c-.24-.1-.47-.14-.73-.1"/>
    <path class="cls-2" d="M64.63,167.28c-.24-.1-.46-.14-.72-.1"/>
    <path class="cls-2" d="M58.64,173.23c-.04-1.04.03-2.17.28-3.19.13-.53.3-1.02.58-1.49.26-.43.67-.87,1.23-.95"/>
    <path class="cls-2" d="M242.25,169.02s-.08.08-.08.15"/>
    <path class="cls-2" d="M243.17,168.14c-.1.1-.05.18.05.25.09.06.18.09.28.12"/>
    <line class="cls-2" x1="81.97" y1="169.16" x2="85.16" y2="170.45"/>
    <line class="cls-2" x1="78.79" y1="169.6" x2="81.97" y2="169.16"/>
    <line class="cls-2" x1="81.98" y1="170.89" x2="78.79" y2="169.6"/>
    <line class="cls-2" x1="77.23" y1="167.25" x2="74.07" y2="167.68"/>
    <path class="cls-2" d="M69.62,206.97c.51-.08.95-.33,1.32-.67.51-.46.88-1.08,1.16-1.69.49-1.07.77-2.28.93-3.43.32-2.31.22-4.83-.12-7.12-.35-2.29-1-4.72-1.99-6.83-.49-1.05-1.12-2.13-1.9-3.01-.45-.5-.98-.98-1.6-1.27-.46-.22-.95-.33-1.46-.26"/>
    <path class="cls-2" d="M243.17,164.73c-.31-.29-.62-.59-.92-.88"/>
    <path class="cls-2" d="M242.25,163.85s-.08-.09-.08-.16"/>
    <line class="cls-2" x1="246.41" y1="167.33" x2="249.49" y2="166.87"/>
    <path class="cls-2" d="M246.41,167.33s-.09.02-.13.03"/>
    <path class="cls-2" d="M252.24,182.58s0,0,.01,0"/>
    <path class="cls-2" d="M242.25,180.25c.31-.29.61-.58.92-.87"/>
    <path class="cls-2" d="M242.25,180.25s-.09.09-.09.17"/>
    <path class="cls-2" d="M243.17,179.37c-.1.1-.06.19.04.26.09.06.18.1.29.13"/>
    <path class="cls-2" d="M251.76,178.62c-.11-.13-.23-.23-.39-.29"/>
    <path class="cls-2" d="M243.17,176c-.31-.29-.61-.58-.92-.87"/>
    <path class="cls-2" d="M242.25,175.12c-.05-.05-.09-.09-.09-.17"/>
    <path class="cls-2" d="M246.38,178.59s-.07.01-.11.02"/>
    <path class="cls-2" d="M252.22,193.89s0,0,.01,0"/>
    <path class="cls-2" d="M242.25,191.42c.3-.29.61-.58.91-.86"/>
    <path class="cls-2" d="M242.25,191.42c-.05.05-.09.1-.09.18"/>
    <line class="cls-2" x1="232.8" y1="365.51" x2="207" y2="350.79"/>
    <path class="cls-2" d="M243.17,190.55c-.1.1-.07.19.03.27.09.07.19.11.29.14"/>
    <path class="cls-2" d="M238.07,47.69c-2.96.24-5.47,1.8-7.43,3.87-1.96,2.06-3.41,4.66-4.47,7.26-2.12,5.22-2.94,11.24-2.92,16.8"/>
    <path class="cls-2" d="M251.72,189.94c-.11-.12-.22-.22-.38-.28"/>
    <path class="cls-2" d="M243.17,187.21c-.3-.29-.61-.58-.91-.87"/>
    <path class="cls-2" d="M242.26,186.35c-.06-.05-.1-.1-.1-.18"/>
    <path class="cls-2" d="M246.35,189.8s-.06.01-.09.02"/>
    <line class="cls-2" x1="246.48" y1="144.66" x2="250.03" y2="144.18"/>
    <path class="cls-2" d="M246.48,144.66c-.06,0-.12.02-.17.04"/>
    <line class="cls-2" x1="245.92" y1="145.01" x2="244.09" y2="145.26"/>
    <line class="cls-2" x1="255.4" y1="133.53" x2="256.85" y2="134.3"/>
    <line class="cls-2" x1="250.85" y1="201.84" x2="250.8" y2="201.85"/>
    <line class="cls-2" x1="249.96" y1="201.51" x2="249.51" y2="201.59"/>
    <line class="cls-2" x1="252.31" y1="159.77" x2="252.2" y2="159.79"/>
    <line class="cls-2" x1="245.94" y1="156.32" x2="244.09" y2="156.58"/>
    <line class="cls-2" x1="252.29" y1="171.19" x2="252.17" y2="171.2"/>
    <line class="cls-2" x1="245.96" y1="167.57" x2="244.08" y2="167.85"/>
    <line class="cls-2" x1="243.59" y1="168.54" x2="243.55" y2="168.61"/>
    <line class="cls-2" x1="245.98" y1="178.78" x2="244.07" y2="179.08"/>
    <path class="cls-2" d="M276.28,40.68c4.14.66,7.87,2.71,11.02,5.32,3.17,2.62,5.87,5.89,8.1,9.32"/>
    <path class="cls-2" d="M201.93,75.05c-.07-8.88,1.27-18.68,4.88-26.97,1.79-4.1,4.33-8.25,7.8-11.25,3.57-3.09,7.92-4.74,12.74-3.97"/>
    <path class="cls-2" d="M223.79,234.13c.02,6.81,1.43,14,4,20.32,1.29,3.17,2.96,6.33,5.02,9.09,2,2.67,4.65,5.32,7.8,6.73"/>
    <path class="cls-2" d="M228,287.46c-4.65-2.22-8.56-6.27-11.5-10.29-3.04-4.16-5.5-8.91-7.4-13.68-3.79-9.48-5.89-20.23-5.96-30.44"/>
    <path class="cls-2" d="M197.31,329.11c-2.65-1.64-4.25-4.51-4.28-7.61"/>
    <line class="cls-2" x1="302.58" y1="290.54" x2="302.51" y2="290.55"/>
    <path class="cls-2" d="M299.05,61.85c-2.45-2.56-5.61-4.76-9.25-5.4"/>
    <line class="cls-2" x1="246" y1="189.94" x2="244.06" y2="190.25"/>
    <path class="cls-2" d="M256.89,137.43s-.08.01-.12,0"/>
    <path class="cls-2" d="M256.68,207.39s-.01,0-.02,0"/>
    <line class="cls-2" x1="242.73" y1="129.27" x2="256" y2="133.08"/>
    <line class="cls-2" x1="255.98" y1="138.5" x2="242.73" y2="134.93"/>
    <line class="cls-2" x1="251.44" y1="144.01" x2="242.73" y2="141.38"/>
    <line class="cls-2" x1="242.73" y1="146.91" x2="251.43" y2="149.38"/>
    <path class="cls-2" d="M197.31,329.11s0,0,0,0c0,0,0,0,0,0,0,0,.01,0,.02.01.01,0,.02.01.03.02"/>
    <path class="cls-2" d="M202.39,343.22c-.13-2.52-.63-5.1-1.42-7.49-.4-1.21-.88-2.39-1.47-3.52-.29-.57-.61-1.12-.97-1.65-.26-.39-.54-.76-.86-1.11-.11-.12-.23-.25-.36-.35"/>
    <path class="cls-2" d="M207,350.79c-2.75-1.57-4.46-4.42-4.61-7.56"/>
    <line class="cls-2" x1="238.07" y1="47.69" x2="240.34" y2="47.51"/>
    <path class="cls-2" d="M301.82,293c-1.74,5.63-4.8,11.71-9.83,15.39-5.45,3.98-11.7,4-17.58,1.2"/>
    <line class="cls-2" x1="251.85" y1="267.95" x2="299.11" y2="288.71"/>
    <line class="cls-2" x1="234.78" y1="74.52" x2="234.97" y2="232.07"/>
    <line class="cls-2" x1="251.42" y1="155.5" x2="242.72" y2="152.76"/>
    <line class="cls-2" x1="242.72" y1="158.26" x2="251.41" y2="160.85"/>
    <line class="cls-2" x1="251.39" y1="166.94" x2="242.72" y2="164.09"/>
    <line class="cls-2" x1="242.72" y1="169.56" x2="251.38" y2="172.26"/>
    <line class="cls-2" x1="251.37" y1="178.33" x2="242.72" y2="175.36"/>
    <line class="cls-2" x1="242.71" y1="180.81" x2="251.36" y2="183.63"/>
    <line class="cls-2" x1="251.34" y1="189.67" x2="242.71" y2="186.59"/>
    <line class="cls-2" x1="242.71" y1="192.01" x2="251.33" y2="194.94"/>
    <line class="cls-2" x1="242.71" y1="198.32" x2="255.78" y2="203.17"/>
    <path class="cls-2" d="M255.78,203.17c.16.06.27.15.37.27"/>
    <line class="cls-2" x1="255.77" y1="208.45" x2="242.7" y2="203.82"/>
    <line class="cls-2" x1="256.78" y1="137.44" x2="243.52" y2="133.88"/>
    <line class="cls-2" x1="251.1" y1="132.97" x2="255" y2="135.07"/>
    <path class="cls-2" d="M250.03,132.71c.38-.02.74.08,1.07.26"/>
    <line class="cls-2" x1="256.55" y1="207.38" x2="243.48" y2="202.78"/>
    <line class="cls-2" x1="405.73" y1="365.11" x2="417.93" y2="10.44"/>
    <line class="cls-2" x1="406.93" y1="364.82" x2="419.12" y2="13.08"/>
    <path class="cls-2" d="M243.48,202.78c-.11-.04-.21-.08-.3-.15-.11-.09-.12-.18-.02-.28"/>
    <line class="cls-2" x1="268.67" y1="117.92" x2="268.67" y2="118.04"/>
    <path class="cls-2" d="M234.97,232.07c0,6.79,1.41,13.94,4,20.22,1.3,3.16,2.98,6.29,5.06,9.02,2.02,2.65,4.67,5.25,7.82,6.64"/>
    <path class="cls-2" d="M299.11,288.71c.46.2.93.38,1.4.54"/>
    <line class="cls-2" x1="306.65" y1="98.02" x2="304.34" y2="275.75"/>
    <path class="cls-2" d="M287.55,291.31c2.37,1.06,4.96,1.51,7.55.92"/>
    <line class="cls-2" x1="227.33" y1="32.86" x2="276.28" y2="40.68"/>
    <line class="cls-2" x1="274.42" y1="309.58" x2="228" y2="287.46"/>
    <line class="cls-2" x1="240.61" y1="270.27" x2="287.55" y2="291.31"/>
    <path class="cls-2" d="M240.61,47.81c-.85-.15-1.68-.19-2.54-.12"/>
    <line class="cls-2" x1="223.25" y1="75.63" x2="223.79" y2="234.13"/>
    <line class="cls-2" x1="203.13" y1="233.05" x2="201.93" y2="75.05"/>
    <path class="cls-2" d="M251.71,144.16s.09.05.13.08"/>
    <path class="cls-2" d="M251.8,167.24c-.11-.13-.23-.24-.4-.3"/>
    <path class="cls-2" d="M251.83,155.81c-.12-.14-.24-.25-.42-.31"/>
    <line class="cls-2" x1="251.83" y1="155.81" x2="252.08" y2="156.11"/>
    <line class="cls-2" x1="249.51" y1="201.59" x2="249.91" y2="201.6"/>
    <path class="cls-2" d="M252.31,148.33s.02,0,.02,0"/>
    <line class="cls-2" x1="243.51" y1="157.21" x2="252.2" y2="159.79"/>
    <line class="cls-2" x1="247.25" y1="156.23" x2="250.62" y2="158.42"/>
    <path class="cls-2" d="M247.25,156.23c-.24-.15-.51-.25-.8-.21"/>
    <line class="cls-2" x1="243.49" y1="190.96" x2="252.12" y2="193.88"/>
    <line class="cls-2" x1="247.24" y1="167.55" x2="250.59" y2="169.77"/>
    <line class="cls-2" x1="247.22" y1="178.81" x2="250.57" y2="181.08"/>
    <line class="cls-2" x1="247.21" y1="190.03" x2="250.55" y2="192.33"/>
    <line class="cls-2" x1="247.27" y1="144.86" x2="250.64" y2="147.01"/>
    <path class="cls-2" d="M256,133.08c.18.05.34.19.45.33"/>
    <line class="cls-2" x1="247.25" y1="156.23" x2="250.44" y2="155.77"/>
    <line class="cls-2" x1="252.04" y1="167.61" x2="251.39" y2="166.94"/>
    <line class="cls-2" x1="243.5" y1="164.9" x2="242.72" y2="164.09"/>
    <line class="cls-2" x1="243.49" y1="179.76" x2="242.71" y2="180.81"/>
    <line class="cls-2" x1="243.5" y1="176.16" x2="242.72" y2="175.36"/>
    <line class="cls-2" x1="243.49" y1="190.96" x2="242.71" y2="192.01"/>
    <line class="cls-2" x1="243.49" y1="187.38" x2="242.71" y2="186.59"/>
    <line class="cls-2" x1="243.51" y1="153.58" x2="242.72" y2="152.76"/>
    <line class="cls-2" x1="252.08" y1="156.2" x2="251.42" y2="155.5"/>
    <line class="cls-2" x1="243.51" y1="157.21" x2="242.72" y2="158.26"/>
    <line class="cls-2" x1="247.27" y1="144.86" x2="250.72" y2="144.39"/>
    <line class="cls-2" x1="257.59" y1="119.41" x2="260.53" y2="120.17"/>
    <path class="cls-2" d="M257.06,120.11c0-.3.2-.65.53-.69"/>
    <line class="cls-2" x1="257.06" y1="120.11" x2="257.05" y2="124.2"/>
    <line class="cls-2" x1="257.06" y1="120.11" x2="260" y2="120.87"/>
    <line class="cls-2" x1="260" y1="120.87" x2="259.99" y2="124.98"/>
    <line class="cls-2" x1="260.9" y1="120.9" x2="260.88" y2="125.01"/>
    <path class="cls-2" d="M266.58,216.94c0,.21.09.43.3.51"/>
    <path class="cls-2" d="M267.22,217.48c.11-.02.17-.11.21-.2.04-.1.05-.19.05-.3"/>
    <line class="cls-2" x1="249.91" y1="201.6" x2="250.02" y2="202.64"/>
    <line class="cls-2" x1="242.71" y1="198.32" x2="243.48" y2="199.1"/>
    <line class="cls-2" x1="255.78" y1="203.17" x2="256.39" y2="203.79"/>
    <line class="cls-2" x1="250.03" y1="132.71" x2="250.15" y2="133.77"/>
    <line class="cls-2" x1="251.1" y1="132.97" x2="251.01" y2="134"/>
    <line class="cls-2" x1="251.1" y1="132.97" x2="252.74" y2="132.76"/>
    <line class="cls-2" x1="242.73" y1="129.27" x2="243.52" y2="130.11"/>
    <line class="cls-2" x1="256" y1="133.08" x2="256.69" y2="133.83"/>
    <line class="cls-2" x1="242.73" y1="134.93" x2="243.52" y2="133.88"/>
    <line class="cls-2" x1="243.51" y1="142.21" x2="242.73" y2="141.38"/>
    <line class="cls-2" x1="252.12" y1="144.73" x2="251.44" y2="144.01"/>
    <line class="cls-2" x1="243.51" y1="145.86" x2="242.73" y2="146.91"/>
    <path class="cls-2" d="M243.26,124.18c-.11-.03-.31-.09-.4-.18-.07-.07-.06-.13.01-.19.06-.05.12-.08.19-.1.28-.11.57-.15.86-.18"/>
    <line class="cls-2" x1="266.58" y1="216.94" x2="242.7" y2="208.08"/>
    <line class="cls-2" x1="242.7" y1="208.08" x2="242.7" y2="203.82"/>
    <line class="cls-2" x1="387.73" y1="1" x2="377.35" y2="365.51"/>
    <line class="cls-2" x1="242.71" y1="198.32" x2="242.71" y2="192.01"/>
    <line class="cls-2" x1="242.71" y1="186.59" x2="242.71" y2="180.81"/>
    <line class="cls-2" x1="242.72" y1="175.36" x2="242.72" y2="169.56"/>
    <line class="cls-2" x1="242.72" y1="164.09" x2="242.72" y2="158.26"/>
    <line class="cls-2" x1="242.72" y1="152.76" x2="242.73" y2="146.91"/>
    <line class="cls-2" x1="242.73" y1="141.38" x2="242.73" y2="134.93"/>
    <line class="cls-2" x1="242.73" y1="129.27" x2="242.74" y2="124.88"/>
    <line class="cls-2" x1="251.96" y1="190.3" x2="251.34" y2="189.67"/>
    <line class="cls-2" x1="252" y1="178.98" x2="251.37" y2="178.33"/>
    <line class="cls-2" x1="252.26" y1="182.55" x2="252.14" y2="182.57"/>
    <line class="cls-2" x1="246.55" y1="167.32" x2="246.28" y2="167.36"/>
    <line class="cls-2" x1="357.26" y1="365.51" x2="366.12" y2="1"/>
    <line class="cls-2" x1="251.71" y1="132.47" x2="249.63" y2="132.74"/>
    <line class="cls-2" x1="252.33" y1="148.31" x2="252.22" y2="148.32"/>
    <line class="cls-2" x1="85.16" y1="170.45" x2="86.64" y2="170.24"/>
    <path class="cls-2" d="M75.56,165.8c-.24-.1-.47-.14-.73-.1"/>
    <line class="cls-2" x1="75.78" y1="180.49" x2="90.08" y2="178.45"/>
    <path class="cls-2" d="M90.08,178.45c-.05-1.51-.32-3.11-.82-4.54-.25-.73-.56-1.43-.98-2.09-.38-.59-.94-1.3-1.64-1.58"/>
    <path class="cls-2" d="M89.78,168.88c-.91.71-1.99,1.2-3.14,1.36"/>
    <path class="cls-2" d="M96.36,175.7c-.8-1.33-1.83-2.68-2.88-3.82-.87-.95-2.43-2.49-3.7-2.99"/>
    <path class="cls-2" d="M96.36,175.7c-1.82,1.43-3.97,2.42-6.28,2.75"/>
    <path class="cls-2" d="M91.17,214.57c2.15-.35,4.34-.11,6.34.8"/>
    <path class="cls-2" d="M78.66,164.47c-.26-.1-.71-.24-.99-.02"/>
    <line class="cls-2" x1="75.56" y1="165.8" x2="74.1" y2="166"/>
    <line class="cls-2" x1="72.37" y1="172.22" x2="75.58" y2="171.77"/>
    <line class="cls-2" x1="78.79" y1="171.33" x2="81.98" y2="170.89"/>
    <path class="cls-2" d="M256.94,120.04s.09.06.12.07"/>
    <line class="cls-2" x1="86.64" y1="170.24" x2="75.56" y2="165.8"/>
    <line class="cls-2" x1="78.66" y1="164.47" x2="89.78" y2="168.88"/>
    <path class="cls-2" d="M243,208.58c-.21-.08-.3-.3-.3-.5"/>
    <line class="cls-2" x1="76.99" y1="216.87" x2="91.17" y2="214.57"/>
    <path class="cls-2" d="M75.56,165.8c1.14-.15,2.2-.63,3.1-1.33"/>
    <path class="cls-2" d="M97.51,215.37c-.58,1.25-1.4,2.51-2.39,3.48-.49.48-1.08.94-1.71,1.24-.62.29-1.37.45-2.05.15"/>
    <line class="cls-2" x1="256.68" y1="207.36" x2="256.55" y2="207.38"/>
    <line class="cls-2" x1="252.23" y1="193.86" x2="252.12" y2="193.88"/>
    <line class="cls-2" x1="289.52" y1="128.64" x2="267.94" y2="131.45"/>
    <line class="cls-2" x1="289.14" y1="127.9" x2="267.57" y2="130.7"/>
    <line class="cls-2" x1="266.58" y1="216.94" x2="267.03" y2="131.42"/>
    <line class="cls-2" x1="267.03" y1="131.42" x2="242.74" y2="124.88"/>
    <line class="cls-2" x1="267.57" y1="130.7" x2="243.26" y2="124.18"/>
    <line class="cls-2" x1="288.7" y1="213.17" x2="267.48" y2="216.98"/>
    <line class="cls-2" x1="267.48" y1="216.98" x2="267.94" y2="131.45"/>
    <line class="cls-2" x1="260.9" y1="120.9" x2="272.37" y2="119.48"/>
    <line class="cls-2" x1="260.53" y1="120.17" x2="272" y2="118.76"/>
    <line class="cls-2" x1="269.04" y1="118.01" x2="257.59" y2="119.41"/>
    <path class="cls-2" d="M148.03,105.17c-.32-.09-.63-.12-.96-.08"/>
    <line class="cls-2" x1="169.88" y1="148.19" x2="169.85" y2="145.52"/>
    <line class="cls-2" x1="120.21" y1="108.17" x2="127.6" y2="110.33"/>
    <path class="cls-2" d="M127,111.08c0-.35.23-.71.6-.75"/>
    <path class="cls-2" d="M132.23,117.23c-.24.03-.7.14-.91.3"/>
    <path class="cls-2" d="M120.21,108.17c-.36.04-.6.4-.59.74"/>
    <line class="cls-2" x1="119.62" y1="108.91" x2="127" y2="111.08"/>
    <path class="cls-2" d="M115.68,112.81c-.05-.06-.08-.15-.06-.23"/>
    <path class="cls-2" d="M124.38,128.8c.17.05.33.07.51.05"/>
    <path class="cls-2" d="M134.43,238.73c0-.34.23-.7.58-.76"/>
    <path class="cls-2" d="M119.11,251.62s-.07.03-.06.06"/>
    <line class="cls-2" x1="130.4" y1="262.08" x2="123.2" y2="258.44"/>
    <path class="cls-2" d="M127.24,252.61c.25.12.52.17.79.12"/>
    <path class="cls-2" d="M243.85,123.53s.05,0,.08,0"/>
    <path class="cls-2" d="M134.39,259.25c.18.27.6.39.9.33"/>
    <path class="cls-2" d="M168.77,136.33c.07,0,.14,0,.21.02"/>
    <line class="cls-2" x1="247.21" y1="190.03" x2="249.74" y2="189.62"/>
    <line class="cls-2" x1="252.12" y1="193.88" x2="251.33" y2="194.94"/>
    <path class="cls-2" d="M161.52,122.93c-.05-2.97-.46-6.02-1.21-8.89"/>
    <line class="cls-2" x1="132.23" y1="117.23" x2="160.31" y2="114.05"/>
    <path class="cls-2" d="M133.46,126.25c-.24.03-.71.04-.95-.03"/>
    <path class="cls-2" d="M133.46,126.25c-.06-3.01-.48-6.11-1.24-9.02"/>
    <line class="cls-2" x1="247.22" y1="178.81" x2="249.96" y2="178.39"/>
    <line class="cls-2" x1="252.14" y1="182.57" x2="251.36" y2="183.63"/>
    <path class="cls-2" d="M123.77,129.54c-1.13-.36-1.91-1.85-2.29-2.78-.45-1.13-.72-2.4-.81-3.6-.09-1.18-.03-2.52.31-3.67.17-.57.42-1.18.83-1.64.43-.49.99-.75,1.65-.55"/>
    <path class="cls-2" d="M132.51,126.22c-.06-2.9-.47-5.88-1.19-8.69"/>
    <path class="cls-2" d="M115.73,133.97c-.2-.07-.33-.35-.39-.51-.08-.21-.11-.42-.12-.65"/>
    <path class="cls-2" d="M132.91,140.08c.06.02.12.03.18.01"/>
    <path class="cls-2" d="M132.29,139.47c.22.07.35-.13.41-.3.07-.18.08-.36.08-.56"/>
    <line class="cls-2" x1="247.24" y1="167.55" x2="250.19" y2="167.11"/>
    <line class="cls-2" x1="252.17" y1="171.2" x2="251.38" y2="172.26"/>
    <path class="cls-2" d="M134.95,239.95c.23.11.7.09.93.05"/>
    <path class="cls-2" d="M126.64,253.35c-1.02-.5-1.75-1.86-2.14-2.8-.45-1.09-.74-2.3-.86-3.47-.12-1.14-.1-2.44.21-3.56.15-.55.41-1.15.84-1.56.48-.46,1.06-.53,1.65-.25"/>
    <line class="cls-2" x1="135.21" y1="251.8" x2="134.95" y2="239.95"/>
    <path class="cls-2" d="M117.98,243.38c.07,2.75.47,5.57,1.14,8.24"/>
    <line class="cls-2" x1="162.54" y1="254.42" x2="135.29" y2="259.58"/>
    <path class="cls-2" d="M162.54,254.42c.72-2.42.96-5.13.92-7.64"/>
    <path class="cls-2" d="M135.21,251.8c.23.11.7.1.93.05"/>
    <path class="cls-2" d="M134.39,259.25c.66-2.37.87-5.02.82-7.45"/>
    <path class="cls-2" d="M135.29,259.58c.69-2.46.9-5.21.85-7.74"/>
    <path class="cls-2" d="M169.02,136.6c-.05-.1-.13-.24-.25-.27"/>
    <line class="cls-2" x1="161.76" y1="138.04" x2="169.13" y2="137.11"/>
    <line class="cls-2" x1="133.46" y1="126.25" x2="161.52" y2="122.93"/>
    <line class="cls-2" x1="135.88" y1="240" x2="153.65" y2="236.72"/>
    <line class="cls-2" x1="136.14" y1="251.85" x2="135.88" y2="240"/>
    <line class="cls-2" x1="163.47" y1="246.78" x2="136.14" y2="251.85"/>
    <line class="cls-2" x1="163.24" y1="232.32" x2="163.47" y2="246.78"/>
    <line class="cls-2" x1="170.47" y1="231.03" x2="163.24" y2="232.32"/>
    <path class="cls-2" d="M123.55,117.87c-.56.07-.95.49-1.22.92-.28.46-.44.95-.56,1.47-.23,1.01-.25,2.13-.15,3.15.1,1.03.35,2.1.75,3.06.34.79,1.02,2.04,2,2.33"/>
    <path class="cls-2" d="M119.27,108.08c.32-.03.62,0,.93.09"/>
    <path class="cls-2" d="M126.14,242.12c-.52.1-.86.52-1.09.95-.24.45-.37.92-.45,1.42-.17.96-.14,2.02,0,2.97.14.97.4,1.97.8,2.87.34.78.98,1.88,1.84,2.28"/>
    <path class="cls-2" d="M116.12,134.55c-.25-.08-.38-.33-.39-.57"/>
    <path class="cls-2" d="M117.9,243.29s.05.07.08.08"/>
    <path class="cls-2" d="M162.88,254.17s0,0,0,0"/>
    <line class="cls-2" x1="120.21" y1="108.17" x2="148.03" y2="105.17"/>
    <line class="cls-2" x1="172.71" y1="131.67" x2="174.25" y2="132.14"/>
    <line class="cls-2" x1="170.92" y1="221.3" x2="170.88" y2="218.71"/>
    <line class="cls-2" x1="148.03" y1="105.17" x2="155.6" y2="107.27"/>
    <path class="cls-2" d="M160.31,114.05c-.36-1.35-.88-2.75-1.61-3.96-.66-1.1-1.73-2.44-3.1-2.82"/>
    <line class="cls-2" x1="127.6" y1="110.33" x2="155.6" y2="107.27"/>
    <path class="cls-2" d="M132.23,117.23c-.35-1.36-.87-2.77-1.57-4-.63-1.1-1.69-2.5-3.06-2.9"/>
    <path class="cls-2" d="M114.92,120.71s-.08-.02-.08-.06"/>
    <path class="cls-2" d="M115.22,132.81s-.08-.03-.08-.06"/>
    <line class="cls-2" x1="115.22" y1="132.81" x2="114.92" y2="120.71"/>
    <line class="cls-2" x1="117.98" y1="243.38" x2="117.69" y2="232.04"/>
    <line class="cls-2" x1="162.04" y1="134.23" x2="168.77" y2="136.33"/>
    <line class="cls-2" x1="168.77" y1="136.33" x2="162.08" y2="137.17"/>
    <path class="cls-2" d="M123.46,117.31c1.14.35,1.93,1.84,2.31,2.77.45,1.13.72,2.4.82,3.61.09,1.19.03,2.52-.31,3.68-.17.57-.43,1.19-.84,1.64-.44.49-1.01.74-1.67.53"/>
    <path class="cls-2" d="M115.68,112.81c-.62,2.54-.82,5.3-.76,7.9"/>
    <path class="cls-2" d="M133.73,138.65c-.24.03-.71.04-.95-.04"/>
    <line class="cls-2" x1="252.2" y1="159.79" x2="251.41" y2="160.85"/>
    <path class="cls-2" d="M163.47,246.78c.06-.01.13-.03.19-.05.04-.02.14-.06.14-.12"/>
    <path class="cls-2" d="M169.13,137.11c0-.18-.03-.34-.11-.51"/>
    <line class="cls-2" x1="161.52" y1="122.93" x2="161.76" y2="138.04"/>
    <line class="cls-2" x1="169.13" y1="137.11" x2="170.47" y2="231.03"/>
    <path class="cls-2" d="M170.47,231.03c.06-.01.12-.03.19-.05.04-.01.14-.05.14-.11"/>
    <path class="cls-2" d="M257.59,119.41s-.05,0-.08,0"/>
    <path class="cls-2" d="M260.53,120.17c-.33.04-.53.4-.53.7"/>
    <path class="cls-2" d="M260.9,120.9c0-.15-.02-.28-.08-.42-.05-.12-.15-.27-.29-.31"/>
    <path class="cls-2" d="M260,120.87c.24.06.66.06.89.03"/>
    <path class="cls-2" d="M148.22,105.18c-.06-.02-.13-.02-.19-.02"/>
    <path class="cls-2" d="M130.68,262.57c-.19-.09-.28-.29-.28-.49"/>
    <path class="cls-2" d="M132.64,262.89c.76-.15,1.34-.68,1.75-1.28.41-.61.7-1.33.9-2.03"/>
    <line class="cls-2" x1="243.93" y1="123.54" x2="256.94" y2="121.92"/>
    <path class="cls-2" d="M267.94,131.45c0-.15-.02-.29-.08-.43-.05-.12-.15-.28-.29-.32"/>
    <path class="cls-2" d="M267.03,131.42c.25.07.67.07.92.03"/>
    <path class="cls-2" d="M267.48,216.98c-.24.04-.66.04-.9-.04"/>
    <path class="cls-2" d="M161.86,122.82s-.05.05-.07.06c-.03.01-.06.02-.09.03-.06.01-.12.02-.18.03"/>
    <path class="cls-2" d="M170.66,231.29s-.01-.06-.02-.07c-.02-.02-.03-.04-.05-.06-.04-.04-.08-.08-.12-.12"/>
    <path class="cls-2" d="M169.47,136.99s-.05.05-.07.06c-.03.01-.06.02-.09.03-.06.01-.12.02-.18.03"/>
    <line class="cls-2" x1="250.96" y1="201.94" x2="250.87" y2="202.94"/>
    <line class="cls-2" x1="116.63" y1="134.27" x2="115.73" y2="133.97"/>
    <path class="cls-2" d="M170.24,231.54c.1-.02.16-.13.19-.21.03-.1.04-.19.04-.3"/>
    <line class="cls-2" x1="242.7" y1="203.82" x2="243.48" y2="202.78"/>
    <line class="cls-2" x1="255.77" y1="208.45" x2="256.55" y2="207.38"/>
    <line class="cls-2" x1="249.27" y1="178.15" x2="246.27" y2="178.61"/>
    <line class="cls-2" x1="250.03" y1="132.71" x2="251.79" y2="132.49"/>
    <line class="cls-2" x1="255.98" y1="138.5" x2="256.78" y2="137.44"/>
    <line class="cls-2" x1="70.96" y1="166.42" x2="67.8" y2="166.85"/>
    <line class="cls-2" x1="64.63" y1="167.28" x2="61.45" y2="167.71"/>
    <line class="cls-2" x1="252.22" y1="148.32" x2="251.43" y2="149.38"/>
    <line class="cls-2" x1="118.14" y1="133.88" x2="78.66" y2="164.47"/>
    <line class="cls-2" x1="89.78" y1="168.88" x2="129.73" y2="137.72"/>
    <line class="cls-2" x1="145.27" y1="137.32" x2="96.36" y2="175.7"/>
    <line class="cls-2" x1="97.51" y1="215.37" x2="147.17" y2="237.88"/>
    <path class="cls-2" d="M91.17,214.57c.03,1-.04,2.1-.3,3.08-.21.82-.73,2.16-1.79,2.34"/>
    <path class="cls-2" d="M242.7,208.08c-.15-.06-.55-.21-.55-.45"/>
    <path class="cls-2" d="M155.6,107.27c.07,0,.13,0,.19.02"/>
    <path class="cls-2" d="M123.2,258.44c0,.2.1.39.28.49"/>
    <path class="cls-2" d="M162.54,254.42c.14-.03.29-.1.34-.25"/>
    <line class="cls-2" x1="132.78" y1="138.62" x2="132.51" y2="126.22"/>
    <path class="cls-2" d="M135.88,240c0-.39-.09-.75-.22-1.12-.1-.28-.34-.77-.65-.91"/>
    <path class="cls-2" d="M126.35,241.71c1.03.49,1.77,1.86,2.16,2.8.45,1.09.74,2.31.87,3.48.12,1.14.1,2.45-.22,3.57-.16.55-.41,1.16-.85,1.57-.49.46-1.07.52-1.66.22"/>
    <path class="cls-2" d="M134.43,238.73c.2.09.33.37.4.55.08.22.12.44.13.67"/>
    <path class="cls-2" d="M242.74,124.88c-.11-.03-.22-.06-.32-.11-.07-.03-.24-.11-.24-.22"/>
    <path class="cls-2" d="M242.74,124.88c0-.3.2-.65.53-.69"/>
    <path class="cls-2" d="M267.57,130.7c-.34.04-.54.41-.54.72"/>
    <path class="cls-2" d="M169.02,136.6c.11-.01.32-.02.38.11"/>
    <line class="cls-2" x1="133.73" y1="138.65" x2="133.46" y2="126.25"/>
    <line class="cls-2" x1="151.88" y1="136.49" x2="133.73" y2="138.65"/>
    <path class="cls-2" d="M160.67,114.1c-.02-.06-.13-.06-.17-.06-.06,0-.13,0-.19,0"/>
    <path class="cls-2" d="M132.68,140.06c-.25-.08-.39-.33-.39-.58"/>
    <path class="cls-2" d="M159.8,257.7c1.55-.3,2.37-2.04,2.74-3.29"/>
    <path class="cls-2" d="M133.09,140.09c.28-.05.45-.4.52-.61.09-.27.12-.54.11-.83"/>
    <line class="cls-2" x1="243.5" y1="168.51" x2="242.72" y2="169.56"/>
    <polygon class="cls-3" points="183.54 315.3 183.45 297.9 134.65 313.21 134.65 273.31 183.47 263.4 183.59 246.6 218.62 270.27 183.54 315.3"/>
  </g>
</svg>